<svg id="Capa_1" data-name="Capa 1" xmlns="http://www.w3.org/2000/svg" viewBox="0 0 27.1 26.64"><defs><style>.cls-1{fill:#fff;}.cls-2{fill:#00487b;}</style></defs><title>album</title><path class="cls-1" d="M92.24,825.62A13.55,13.55,0,1,1,78.69,812.3a13.44,13.44,0,0,1,13.55,13.32h0Zm0,0" transform="translate(-65.14 -812.3)"/><path class="cls-2" d="M86.67,828.18a3.49,3.49,0,0,0-2.36-3.28v-4.46H83.52v-0.77h0.79v-0.39H75.25a1.35,1.35,0,0,0-.57.14,1.09,1.09,0,0,0-.61,1h0v10.45a0.77,0.77,0,0,0,.79.77h8.3A3.51,3.51,0,0,0,86.67,828.18Zm-11.48-7.75a0.51,0.51,0,0,1-.23-0.09,0.33,0.33,0,0,1-.11-0.29,0.3,0.3,0,0,1,.18-0.33l0.16,0h7.54v0.77H75.19Zm0.45,10.46V821.6h7.88v3.12l-0.39,0-0.39,0v0a0.77,0.77,0,0,0-.79-0.77H81.16l-0.79-.77H78.79l-0.79.77H77.22a0.77,0.77,0,0,0-.79.77V827a0.77,0.77,0,0,0,.79.77h2.39a3.4,3.4,0,0,0,0,.39,3.45,3.45,0,0,0,1.32,2.71H75.64Zm5.13-5.47a3.48,3.48,0,0,0-.94,1.39l-0.21,0A1.16,1.16,0,1,1,80.77,825.42Zm2.39,5.28A2.71,2.71,0,1,1,85.92,828,2.74,2.74,0,0,1,83.16,830.7Z" transform="translate(-65.14 -812.3)"/><polygon class="cls-2" points="17.59 17.23 19.17 15.68 17.59 14.13 17.59 17.23"/></svg>