<svg id="Capa_1" data-name="Capa 1" xmlns="http://www.w3.org/2000/svg" viewBox="0 0 27.1 26.64"><defs><style>.cls-1{fill:#fff;}.cls-2{fill:#00487b;fill-rule:evenodd;}</style></defs><title>publicaciones</title><path class="cls-1" d="M544,824.18a13.55,13.55,0,1,1-13.55-13.32A13.44,13.44,0,0,1,544,824.18h0Zm0,0" transform="translate(-516.86 -810.86)"/><path class="cls-2" d="M537,815.72H525.25a1.58,1.58,0,0,0-1.6,1.57v1h-0.53a1.58,1.58,0,0,0-1.6,1.57v10.47a2.11,2.11,0,0,0,2.13,2.1h12.78a2.11,2.11,0,0,0,2.13-2.1V817.29a1.59,1.59,0,0,0-1.6-1.57h0Zm0.53,14.66a1.06,1.06,0,0,1-1.07,1H523.65a1.06,1.06,0,0,1-1.06-1V819.91a0.52,0.52,0,0,1,.53-0.52h0.53v10.47a0.53,0.53,0,0,0,1.07,0V817.29a0.53,0.53,0,0,1,.53-0.52H537a0.53,0.53,0,0,1,.53.52v13.09Zm0,0" transform="translate(-516.86 -810.86)"/><path class="cls-2" d="M531.91,822.53h4.26a0.26,0.26,0,1,0,0-.52h-4.26a0.26,0.26,0,1,0,0,.52h0Zm0,0" transform="translate(-516.86 -810.86)"/><path class="cls-2" d="M531.91,821h4.26a0.26,0.26,0,1,0,0-.52h-4.26a0.26,0.26,0,1,0,0,.52h0Zm0,0" transform="translate(-516.86 -810.86)"/><path class="cls-2" d="M531.91,819.39h4.26a0.26,0.26,0,1,0,0-.52h-4.26a0.26,0.26,0,1,0,0,.52h0Zm0,0" transform="translate(-516.86 -810.86)"/><path class="cls-2" d="M530.31,829.86H526a0.26,0.26,0,1,0,0,.52h4.26a0.26,0.26,0,1,0,0-.52h0Zm0,0" transform="translate(-516.86 -810.86)"/><path class="cls-2" d="M530.31,828.29H526a0.26,0.26,0,1,0,0,.52h4.26a0.26,0.26,0,1,0,0-.52h0Zm0,0" transform="translate(-516.86 -810.86)"/><path class="cls-2" d="M530.31,826.72H526a0.26,0.26,0,1,0,0,.52h4.26a0.26,0.26,0,1,0,0-.52h0Zm0,0" transform="translate(-516.86 -810.86)"/><path class="cls-2" d="M536.17,829.86h-4.26a0.26,0.26,0,1,0,0,.52h4.26a0.26,0.26,0,1,0,0-.52h0Zm0,0" transform="translate(-516.86 -810.86)"/><path class="cls-2" d="M536.17,828.29h-4.26a0.26,0.26,0,1,0,0,.52h4.26a0.26,0.26,0,1,0,0-.52h0Zm0,0" transform="translate(-516.86 -810.86)"/><path class="cls-2" d="M536.17,826.72h-4.26a0.26,0.26,0,1,0,0,.52h4.26a0.26,0.26,0,1,0,0-.52h0Zm0,0" transform="translate(-516.86 -810.86)"/><path class="cls-2" d="M536.17,823.58H526a0.26,0.26,0,1,0,0,.52h10.12a0.26,0.26,0,1,0,0-.52h0Zm0,0" transform="translate(-516.86 -810.86)"/><path class="cls-2" d="M536.17,825.15H526a0.26,0.26,0,1,0,0,.52h10.12a0.26,0.26,0,1,0,0-.52h0Zm0,0" transform="translate(-516.86 -810.86)"/><path class="cls-2" d="M526.31,822.53H530a0.53,0.53,0,0,0,.53-0.52v-3.66a0.53,0.53,0,0,0-.53-0.52h-3.73a0.53,0.53,0,0,0-.53.52V822a0.53,0.53,0,0,0,.53.52h0Zm0.53-3.66h2.66v2.62h-2.66v-2.62Zm0,0" transform="translate(-516.86 -810.86)"/></svg>