<svg id="Capa_1" data-name="Capa 1" xmlns="http://www.w3.org/2000/svg" xmlns:xlink="http://www.w3.org/1999/xlink" viewBox="0 0 400.23 400.23"><defs><style>.cls-1{fill:#f2f1f1;}.cls-2{fill:#e7e6e5;}.cls-3{fill:#374e91;}.cls-22,.cls-23,.cls-24,.cls-3,.cls-7{stroke:#c6c6c4;}.cls-13,.cls-14,.cls-17,.cls-19,.cls-22,.cls-23,.cls-24,.cls-28,.cls-3,.cls-4,.cls-7{stroke-miterlimit:10;}.cls-13,.cls-14,.cls-19,.cls-22,.cls-24,.cls-28,.cls-3,.cls-7{stroke-width:0.25px;}.cls-4{fill:#2d4577;stroke:#28395a;stroke-width:3px;}.cls-5{fill:#ebe446;}.cls-6{fill:url(#Degradado_sin_nombre_11);}.cls-14,.cls-15,.cls-17,.cls-28,.cls-7{fill:none;}.cls-11,.cls-13,.cls-25,.cls-8{fill:#fff;}.cls-11,.cls-9{font-size:24.26px;}.cls-10,.cls-19,.cls-21,.cls-9{fill:#232321;}.cls-10,.cls-11,.cls-25,.cls-9{font-family:Baskerville Bold;font-weight:700;}.cls-10,.cls-25{font-size:23.61px;}.cls-12,.cls-22{fill:#dfe0df;}.cls-13,.cls-14,.cls-17,.cls-19{stroke:#232321;}.cls-16{fill:#964952;}.cls-18{fill:#808283;}.cls-20,.cls-23,.cls-24{fill:#272829;}.cls-26{fill:#8e3841;}.cls-27{fill:#2e3363;}.cls-28{stroke:#ebebec;}</style><radialGradient id="Degradado_sin_nombre_11" cx="193.45" cy="186.84" fx="161.46520828946373" fy="142.57331362884835" r="54.61" gradientTransform="translate(-14 45.84) scale(1.09 0.76)" gradientUnits="userSpaceOnUse"><stop offset="0" stop-color="#fff"/><stop offset="1" stop-color="#4570b4"/></radialGradient></defs><title>logo-autonoma-de-narino</title><circle class="cls-1" cx="200.12" cy="200.12" r="200.12"/><circle class="cls-2" cx="200.12" cy="201.72" r="172.9"/><ellipse class="cls-3" cx="201.26" cy="201.72" rx="145.01" ry="146.2"/><ellipse class="cls-4" cx="201.56" cy="201.42" rx="113" ry="112.23"/><polygon class="cls-5" points="120.26 254.51 201.09 115.82 282.26 254.76 120.26 254.51"/><path class="cls-6" d="M251.88,200.86c0,28-20.81,49.85-48.43,49.85s-51.29-20.35-51.29-48.38,17-50.75,50-50.75C229.8,151.58,251.88,172.83,251.88,200.86Z" transform="translate(-1.11 0.57)"/><path class="cls-7" d="M210.44,154.54c2.52,3.28,40.12,39.37-.14,95.7" transform="translate(-1.11 0.57)"/><path class="cls-7" d="M152.16,202.21s52.8,16.17,99.51-.62" transform="translate(-1.11 0.57)"/><path class="cls-7" d="M153.53,213.77s54.3,18,95.85,1.48" transform="translate(-1.11 0.57)"/><path class="cls-7" d="M176.53,241.46s17.5,6.12,41.91,2.49" transform="translate(-1.11 0.57)"/><path class="cls-8" d="M173.63,260.16c-0.59,2-1.67,3.76-3.73,3.76a3.76,3.76,0,0,1,0-7.52C172.71,256.4,174.33,257.8,173.63,260.16Z" transform="translate(-1.11 0.57)"/><text class="cls-9" transform="translate(80.86 204.52) rotate(-88.34)">C</text><text class="cls-9" transform="translate(81.1 191.39) rotate(-81.49)">O</text><text class="cls-9" transform="translate(83.58 175.34) rotate(-74.58)">R</text><text class="cls-9" transform="matrix(0.37, -0.93, 0.93, 0.37, 86.93, 163.15)">P</text><text class="cls-9" transform="translate(91.35 151.52) rotate(-61.66)">O</text><text class="cls-9" transform="matrix(0.58, -0.82, 0.82, 0.58, 99.14, 137.24)">R</text><text class="cls-9" transform="matrix(0.67, -0.75, 0.75, 0.67, 106.42, 126.81)">A</text><text class="cls-9" transform="translate(115.77 116.28) rotate(-41.82)">C</text><text class="cls-9" transform="matrix(0.8, -0.61, 0.61, 0.8, 126.1, 107.25)">I</text><text class="cls-9" transform="matrix(0.85, -0.53, 0.53, 0.85, 130.3, 103.72)">Ó</text><text class="cls-9" transform="translate(144.03 95.11) rotate(-24.49)">N</text><text class="cls-9" transform="translate(158.33 88.83) rotate(-19.58)"> </text><text class="cls-9" transform="matrix(0.97, -0.25, 0.25, 0.97, 162.77, 87)">U</text><text class="cls-9" transform="matrix(0.99, -0.13, 0.13, 0.99, 177.49, 83.09)">N</text><text class="cls-9" transform="matrix(1, -0.04, 0.04, 1, 193, 81.29)">I</text><text class="cls-9" transform="translate(198.48 80.9) rotate(2.01)">V</text><text class="cls-9" transform="translate(211.6 81.38) rotate(7.85)">E</text><text class="cls-9" transform="matrix(0.97, 0.24, -0.24, 0.97, 223.07, 82.91)">R</text><text class="cls-9" transform="translate(235.37 85.91) rotate(19.49)">S</text><text class="cls-9" transform="translate(246.32 89.9) rotate(23.62)">I</text><text class="cls-9" transform="translate(251.43 92) rotate(27.76)">T</text><text class="cls-9" transform="translate(260.24 96.44) rotate(33.14)">A</text><text class="cls-9" transform="translate(272.31 104.36) rotate(39.57)">R</text><text class="cls-9" transform="matrix(0.72, 0.69, -0.69, 0.72, 282.05, 112.57)">I</text><text class="cls-9" transform="translate(286.15 116.23) rotate(48.65)">A</text><text class="cls-10" transform="translate(77.04 261.59) rotate(61.24)">A</text><text class="cls-10" transform="translate(84.21 274.65) rotate(54.95)">U</text><text class="cls-10" transform="translate(93.73 287.95) rotate(48.97)">T</text><text class="cls-10" transform="matrix(0.73, 0.68, -0.68, 0.73, 101.64, 297.19)">Ó</text><text class="cls-10" transform="translate(114.51 309.08) rotate(36.06)">N</text><text class="cls-10" transform="translate(128.1 318.92) rotate(29.02)">O</text><text class="cls-10" transform="translate(143.55 327.49) rotate(21.17)">M</text><text class="cls-10" transform="translate(162.34 334.53) rotate(13.79)">A</text><text class="cls-10" transform="translate(177.16 337.95) rotate(9.45)"> </text><text class="cls-10" transform="translate(182.91 339.09) rotate(4.85)">D</text><text class="cls-10" transform="translate(199.61 340.35) rotate(-1.11)">E</text><text class="cls-10" transform="translate(211.88 339.98) rotate(-4.76)"> </text><text class="cls-10" transform="translate(217.69 339.68) rotate(-9.31)">N</text><text class="cls-10" transform="matrix(0.96, -0.28, 0.28, 0.96, 234.18, 336.87)">A</text><text class="cls-10" transform="translate(249.07 332.5) rotate(-22.07)">R</text><text class="cls-10" transform="translate(261.45 327.31) rotate(-26.16)">I</text><text class="cls-10" transform="matrix(0.86, -0.51, 0.51, 0.86, 267.35, 324.6)">Ñ</text><text class="cls-10" transform="translate(281.74 315.93) rotate(-37.92)">O</text><text class="cls-11" transform="translate(81.15 202.44) rotate(-88.34)">C</text><text class="cls-11" transform="translate(81.39 189.31) rotate(-81.49)">O</text><text class="cls-11" transform="translate(83.88 173.26) rotate(-74.58)">R</text><text class="cls-11" transform="matrix(0.37, -0.93, 0.93, 0.37, 87.22, 161.07)">P</text><text class="cls-11" transform="translate(91.64 149.44) rotate(-61.66)">O</text><text class="cls-11" transform="matrix(0.58, -0.82, 0.82, 0.58, 99.43, 135.16)">R</text><text class="cls-11" transform="translate(106.71 124.73) rotate(-48.31)">A</text><text class="cls-11" transform="translate(116.06 114.2) rotate(-41.82)">C</text><text class="cls-11" transform="matrix(0.8, -0.61, 0.61, 0.8, 126.39, 105.17)">I</text><text class="cls-11" transform="matrix(0.85, -0.53, 0.53, 0.85, 130.59, 101.64)">Ó</text><text class="cls-11" transform="matrix(0.91, -0.41, 0.41, 0.91, 144.3, 93.04)">N</text><text class="cls-11" transform="translate(158.63 86.75) rotate(-19.58)"> </text><text class="cls-11" transform="translate(163.06 84.92) rotate(-14.74)">U</text><text class="cls-11" transform="matrix(0.99, -0.13, 0.13, 0.99, 177.79, 81.01)">N</text><text class="cls-11" transform="translate(193.29 79.21) rotate(-2.38)">I</text><text class="cls-11" transform="matrix(1, 0.04, -0.04, 1, 198.77, 78.82)">V</text><text class="cls-11" transform="matrix(0.99, 0.14, -0.14, 0.99, 211.89, 79.3)">E</text><text class="cls-11" transform="matrix(0.97, 0.24, -0.24, 0.97, 223.34, 80.83)">R</text><text class="cls-11" transform="translate(235.66 83.83) rotate(19.49)">S</text><text class="cls-11" transform="translate(246.62 87.82) rotate(23.62)">I</text><text class="cls-11" transform="matrix(0.88, 0.47, -0.47, 0.88, 251.72, 89.92)">T</text><text class="cls-11" transform="matrix(0.84, 0.55, -0.55, 0.84, 260.53, 94.36)">A</text><text class="cls-11" transform="matrix(0.77, 0.64, -0.64, 0.77, 272.6, 102.28)">R</text><text class="cls-11" transform="matrix(0.72, 0.69, -0.69, 0.72, 282.34, 110.49)">I</text><text class="cls-11" transform="translate(286.44 114.15) rotate(48.65)">A</text><rect class="cls-12" x="239.35" y="224.5" width="26.74" height="11.29"/><path class="cls-13" d="M120,234.09c11.34,7.77,33.21,24.54,45.07,31.51,2.4,1.41,9.43,4.55,10.25-4.33,0,0-3.1,1.69-4.18,2.2a3.32,3.32,0,0,1-4.61-1.69,3.83,3.83,0,0,1,2.88-5.53L187.8,248l-40.35-23.24s-2.67-2.06-7.08-.5L113,232.46" transform="translate(-1.11 0.57)"/><line class="cls-14" x1="125.61" y1="235.16" x2="145.68" y2="228.75"/><line class="cls-14" x1="127.34" y1="236.22" x2="147.4" y2="229.75"/><line class="cls-14" x1="129.12" y1="237.61" x2="149.46" y2="230.76"/><line class="cls-14" x1="130.96" y1="238.78" x2="151.14" y2="231.7"/><line class="cls-14" x1="132.73" y1="240.28" x2="152.45" y2="233.15"/><line class="cls-14" x1="134.65" y1="241.66" x2="155.02" y2="233.85"/><line class="cls-14" x1="136.65" y1="242.98" x2="157.04" y2="234.93"/><line class="cls-14" x1="138.7" y1="244.52" x2="158.93" y2="236.22"/><line class="cls-14" x1="140.78" y1="245.9" x2="146.48" y2="243.55"/><path class="cls-15" d="M175.26,261.14" transform="translate(-1.11 0.57)"/><path class="cls-13" d="M173.06,266.49c-0.19.21,29.14-15.18,29.14-15.18,1.4-1.81,1.79-7.8-4.43-8l-28.93,13.06s4.23-.57,5.71,2.71C175.22,260.55,176,263.32,173.06,266.49Z" transform="translate(-1.11 0.57)"/><path class="cls-13" d="M172.94,257.18l-3.84,1.87a2.26,2.26,0,0,1,3,1.83,2.53,2.53,0,0,1-1.06,2.65l4.16-2.13S175.06,258.31,172.94,257.18Z" transform="translate(-1.11 0.57)"/><path class="cls-14" d="M171.18,259.37s-1.74.92-1.8,0.92a0.51,0.51,0,0,0,.26.85s1.07-.43,1.15-0.49,0.27,0.6-.83,1.28l2.13-.94A2.56,2.56,0,0,0,171.18,259.37Z" transform="translate(-1.11 0.57)"/><path class="cls-14" d="M169.38,260.29c1.1-.58,2.22.36,0.57,1.64" transform="translate(-1.11 0.57)"/><path class="cls-16" d="M156.4,181.44" transform="translate(-1.11 0.57)"/><path class="cls-16" d="M154.69,179.15" transform="translate(-1.11 0.57)"/><path class="cls-17" d="M245.57,210.45" transform="translate(-1.11 0.57)"/><polygon class="cls-18" points="252.38 210.83 239.09 211.1 252.71 213.57 266.08 213.57 252.38 210.83"/><path class="cls-19" d="M251.67,201.59l4.81-.73v11s-1.52,1-4.81,0V201.59Z" transform="translate(-1.11 0.57)"/><path class="cls-19" d="M257.93,200.07l4.81-.86v12.86s-1.52,1.22-4.81,0v-12Z" transform="translate(-1.11 0.57)"/><path class="cls-19" d="M245.57,202.25l4.81-.64v9.61s-1.52.91-4.81,0v-9Z" transform="translate(-1.11 0.57)"/><polygon class="cls-12" points="239.09 211.1 239.09 213.84 239.09 220 252.71 224.5 252.71 213.57 239.09 211.1"/><line class="cls-7" x1="239.09" y1="213.57" x2="252.71" y2="216.65"/><line class="cls-7" x1="239.09" y1="215.82" x2="252.71" y2="219.31"/><line class="cls-7" x1="242.72" y1="211.76" x2="242.72" y2="214.39"/><line class="cls-7" x1="247.47" y1="212.62" x2="247.47" y2="215.37"/><line class="cls-7" x1="249.62" y1="215.95" x2="249.62" y2="218.51"/><path class="cls-7" d="M245.82,214.27a22,22,0,0,1,0,2.29" transform="translate(-1.11 0.57)"/><polyline class="cls-7" points="239.09 217.77 240.66 218.27 252.71 222.08"/><line class="cls-7" x1="240.65" y1="220.51" x2="240.66" y2="218.27"/><line class="cls-7" x1="244.57" y1="219.51" x2="244.57" y2="221.79"/><line class="cls-7" x1="249.51" y1="221.07" x2="249.51" y2="223.48"/><polygon class="cls-20" points="239.53 216.65 252.15 220.2 252.15 221.4 239.53 217.66 239.53 216.65"/><polygon class="cls-12" points="228.31 228.79 239.32 235.77 239.32 224.48 228.31 219.87 228.31 221.92 228.31 228.79"/><polyline class="cls-7" points="228.33 222.08 228.39 222.06 239.32 226.92 266.08 226.94"/><polyline class="cls-7" points="228.33 224.46 228.39 224.44 239.32 230.19 266.08 230.17"/><polyline class="cls-7" points="228.33 227.18 228.38 227.18 229.24 227.61 239.32 233.31 266.08 233.33"/><line class="cls-7" x1="231.29" y1="220.97" x2="231.31" y2="223.36"/><line class="cls-7" x1="235.59" y1="222.74" x2="235.59" y2="225.22"/><line class="cls-7" x1="233.18" y1="224.13" x2="233.18" y2="226.97"/><line class="cls-7" x1="237.03" y1="225.87" x2="237.03" y2="228.99"/><line class="cls-7" x1="229.34" y1="222.43" x2="229.34" y2="224.96"/><line class="cls-7" x1="229.26" y1="227.63" x2="229.26" y2="229.57"/><line class="cls-7" x1="232.93" y1="229.68" x2="232.93" y2="231.89"/><line class="cls-7" x1="237.03" y1="231.98" x2="237.03" y2="234.56"/><polygon class="cls-20" points="228.82 226.91 232.46 228.9 232.51 228.25 228.82 226.29 228.82 226.91"/><polygon class="cls-18" points="228.31 228.79 217.34 228.75 225.85 235.79 239.32 235.77 228.31 228.79"/><polygon class="cls-12" points="225.83 258.54 225.85 235.81 217.33 228.78 217.36 247.19 225.83 258.54"/><polyline class="cls-7" points="220.5 231.36 220.4 231.44 220.4 234.56"/><polyline class="cls-7" points="223.3 233.67 223.16 233.78 223.13 236.95"/><line class="cls-7" x1="224.14" y1="237.91" x2="224.14" y2="241.21"/><line class="cls-7" x1="221.39" y1="235.47" x2="221.39" y2="238.81"/><line class="cls-7" x1="218.82" y1="233.11" x2="218.82" y2="236.53"/><polyline class="cls-7" points="225.87 239.27 225.72 239.25 217.58 232.06 217.39 232.07"/><line class="cls-7" x1="222.74" y1="239.97" x2="222.74" y2="242.96"/><polyline class="cls-7" points="217.39 238.18 217.59 238.16 225.7 245.72 225.87 245.75"/><polyline class="cls-7" points="225.78 248.79 225.62 248.76 217.53 240.38 217.39 240.4"/><line class="cls-7" x1="221.21" y1="241.51" x2="221.21" y2="244.21"/><line class="cls-7" x1="218.33" y1="238.81" x2="218.33" y2="241.21"/><line class="cls-7" x1="219.63" y1="242.56" x2="219.63" y2="245.41"/><line class="cls-7" x1="222.58" y1="245.59" x2="222.58" y2="248.66"/><polyline class="cls-7" points="225.81 252.1 225.74 252.09 223.66 249.8 217.51 243.09 217.39 243.11"/><line class="cls-7" x1="223.65" y1="252.69" x2="223.66" y2="249.8"/><line class="cls-7" x1="220.82" y1="249.19" x2="220.82" y2="246.7"/><line class="cls-7" x1="218.38" y1="246.25" x2="218.38" y2="244.05"/><polyline class="cls-7" points="217.39 245.19 217.5 245.17 225.68 255.17 225.87 255.19"/><line class="cls-12" x1="225.24" y1="257.4" x2="225.24" y2="254.9"/><path class="cls-12" d="M223.13,252.47" transform="translate(-1.11 0.57)"/><polyline class="cls-7" points="222.02 253.43 222.16 253.34 222.16 250.88"/><polyline class="cls-7" points="219.1 249.5 219.18 249.41 219.18 247.23"/><polygon class="cls-21" points="218.39 237.78 218.39 238.28 219.63 239.45 219.63 238.91 218.39 237.78"/><polyline class="cls-7" points="225.87 242.66 225.71 242.64 217.55 235.4 217.39 235.42"/><line class="cls-7" x1="223.82" y1="246.9" x2="223.84" y2="243.98"/><rect class="cls-12" x="252.71" y="213.57" width="13.37" height="10.93"/><path class="cls-7" d="M256.93,216" transform="translate(-1.11 0.57)"/><path class="cls-7" d="M254.64,216.08" transform="translate(-1.11 0.57)"/><line class="cls-22" x1="252.59" y1="224.5" x2="266.08" y2="224.5"/><line class="cls-7" x1="263.76" y1="213.57" x2="263.76" y2="216.65"/><line class="cls-7" x1="255.37" y1="216.65" x2="255.37" y2="219.31"/><line class="cls-7" x1="263.37" y1="219.31" x2="263.37" y2="222.08"/><line class="cls-7" x1="255.19" y1="222.1" x2="255.19" y2="224.5"/><circle class="cls-7" cx="239.35" cy="226.94"/><circle class="cls-7" cx="239.35" cy="226.94"/><circle class="cls-7" cx="266.08" cy="227.05"/><polyline class="cls-7" points="252.71 216.65 255.82 216.65 266.08 216.65"/><line class="cls-7" x1="252.71" y1="219.31" x2="266.01" y2="219.31"/><line class="cls-7" x1="252.71" y1="222.08" x2="266.08" y2="222.19"/><line class="cls-7" x1="258.2" y1="213.57" x2="258.2" y2="216.65"/><line class="cls-7" x1="260.68" y1="222.15" x2="260.68" y2="224.5"/><polygon class="cls-23" points="250.53 233.51 243.94 233.51 243.94 227.04 247.11 227.04 250.53 227.04 250.53 233.51"/><rect class="cls-23" x="256.07" y="227.23" width="6.43" height="6.06"/><line class="cls-7" x1="245.18" y1="224.53" x2="245.18" y2="226.68"/><line class="cls-7" x1="251.42" y1="224.5" x2="251.42" y2="226.94"/><line class="cls-7" x1="257.61" y1="224.5" x2="257.61" y2="226.82"/><line class="cls-7" x1="263.76" y1="224.53" x2="263.76" y2="226.94"/><line class="cls-7" x1="241.82" y1="226.99" x2="241.82" y2="230.17"/><line class="cls-7" x1="254.75" y1="226.94" x2="254.75" y2="230.21"/><line class="cls-7" x1="263.37" y1="230.17" x2="263.37" y2="233.33"/><line class="cls-7" x1="261.1" y1="233.32" x2="261.1" y2="235.88"/><line class="cls-7" x1="254.75" y1="233.33" x2="254.75" y2="235.81"/><line class="cls-7" x1="248.27" y1="233.37" x2="248.27" y2="235.88"/><line class="cls-7" x1="241.82" y1="233.37" x2="241.82" y2="235.81"/><line class="cls-7" x1="259.45" y1="227.18" x2="259.45" y2="233.29"/><line class="cls-7" x1="247.08" y1="233.32" x2="247.11" y2="227.04"/><rect class="cls-12" x="225.87" y="235.81" width="40.21" height="22.74"/><path class="cls-7" d="M226.84,238.71" transform="translate(-1.11 0.57)"/><line class="cls-7" x1="225.87" y1="239.27" x2="266.08" y2="239.26"/><line class="cls-7" x1="225.87" y1="242.66" x2="266.08" y2="242.66"/><line class="cls-7" x1="225.72" y1="245.75" x2="266.08" y2="245.75"/><path class="cls-7" d="M226.89,248.22h40.3" transform="translate(-1.11 0.57)"/><line class="cls-7" x1="225.81" y1="252.1" x2="266.1" y2="252.1"/><line class="cls-7" x1="225.87" y1="255.19" x2="266.08" y2="255.19"/><line class="cls-7" x1="238.58" y1="235.81" x2="238.58" y2="239.26"/><line class="cls-7" x1="244.74" y1="235.88" x2="244.74" y2="239.26"/><path class="cls-7" d="M233.46,235.22" transform="translate(-1.11 0.57)"/><path class="cls-7" d="M233.46,238.69" transform="translate(-1.11 0.57)"/><line class="cls-7" x1="232.35" y1="235.79" x2="232.39" y2="239.26"/><line class="cls-7" x1="250.98" y1="235.81" x2="250.98" y2="239.26"/><line class="cls-7" x1="257.23" y1="235.88" x2="257.23" y2="239.17"/><line class="cls-7" x1="263.37" y1="235.81" x2="263.37" y2="239.27"/><line class="cls-7" x1="257.23" y1="245.65" x2="257.23" y2="242.66"/><line class="cls-7" x1="263.37" y1="245.65" x2="263.37" y2="242.66"/><line class="cls-7" x1="250.98" y1="245.65" x2="250.98" y2="242.66"/><line class="cls-7" x1="244.74" y1="245.75" x2="244.74" y2="242.66"/><line class="cls-7" x1="238.58" y1="245.75" x2="238.58" y2="242.66"/><line class="cls-7" x1="232.37" y1="245.75" x2="232.37" y2="242.66"/><line class="cls-7" x1="229.11" y1="248.79" x2="229.11" y2="245.75"/><line class="cls-7" x1="235.47" y1="248.68" x2="235.47" y2="245.75"/><line class="cls-7" x1="241.79" y1="248.79" x2="241.79" y2="245.75"/><line class="cls-7" x1="248.26" y1="248.79" x2="248.26" y2="245.75"/><line class="cls-7" x1="254.7" y1="248.79" x2="254.7" y2="245.75"/><path class="cls-7" d="M262.19,248.22s0-3,0-3" transform="translate(-1.11 0.57)"/><line class="cls-7" x1="263.37" y1="252.1" x2="263.37" y2="248.79"/><line class="cls-7" x1="257.23" y1="248.79" x2="257.23" y2="252.1"/><line class="cls-7" x1="250.98" y1="248.89" x2="250.98" y2="252.1"/><line class="cls-7" x1="257.13" y1="255.19" x2="257.13" y2="258.54"/><line class="cls-7" x1="261.09" y1="252.1" x2="261.08" y2="255.19"/><line class="cls-7" x1="263.37" y1="255.19" x2="263.37" y2="258.54"/><line class="cls-7" x1="244.74" y1="248.79" x2="244.74" y2="250.8"/><line class="cls-7" x1="235.47" y1="252.1" x2="235.47" y2="255.19"/><line class="cls-7" x1="238.58" y1="248.79" x2="238.58" y2="252.1"/><line class="cls-7" x1="232.37" y1="248.79" x2="232.39" y2="252.1"/><line class="cls-7" x1="229.11" y1="252.1" x2="229.11" y2="255.19"/><line class="cls-7" x1="232.39" y1="255.19" x2="232.39" y2="258.54"/><polygon class="cls-24" points="232.07 243.11 230.57 243.11 228.01 243.11 228.01 239.11 230.04 239.11 230.47 239.11 232.07 239.11 232.07 243.11"/><line class="cls-7" x1="230.04" y1="239.11" x2="230.04" y2="243.11"/><line class="cls-7" x1="228.08" y1="241.11" x2="232.02" y2="241.11"/><polygon class="cls-24" points="236.72 243.11 235.23 243.11 232.66 243.11 232.66 239.11 234.69 239.11 235.12 239.11 236.72 239.11 236.72 243.11"/><line class="cls-7" x1="234.69" y1="239.11" x2="234.69" y2="243.11"/><line class="cls-7" x1="232.73" y1="241.11" x2="236.67" y2="241.11"/><polygon class="cls-24" points="241.07 243.11 239.58 243.11 237.01 243.11 237.01 239.11 239.04 239.11 239.47 239.11 241.07 239.11 241.07 243.11"/><line class="cls-7" x1="239.04" y1="239.11" x2="239.04" y2="243.11"/><line class="cls-7" x1="237.08" y1="241.11" x2="241.02" y2="241.11"/><polygon class="cls-24" points="245.53 243.11 244.04 243.11 241.47 243.11 241.47 239.11 243.5 239.11 243.93 239.11 245.53 239.11 245.53 243.11"/><line class="cls-7" x1="243.5" y1="239.11" x2="243.5" y2="243.11"/><line class="cls-7" x1="241.54" y1="241.11" x2="245.48" y2="241.11"/><polygon class="cls-24" points="249.96 243.17 248.47 243.17 245.9 243.17 245.9 239.17 247.93 239.17 248.36 239.17 249.96 239.17 249.96 243.17"/><line class="cls-7" x1="247.93" y1="239.17" x2="247.93" y2="243.17"/><line class="cls-7" x1="245.97" y1="241.17" x2="249.91" y2="241.17"/><polygon class="cls-24" points="254.47 243.18 252.98 243.18 250.41 243.18 250.41 239.19 252.44 239.19 252.87 239.19 254.47 239.19 254.47 243.18"/><line class="cls-7" x1="252.44" y1="239.19" x2="252.44" y2="243.18"/><line class="cls-7" x1="250.49" y1="241.18" x2="254.42" y2="241.18"/><polygon class="cls-24" points="258.8 243.17 257.31 243.17 254.74 243.17 254.74 239.17 256.77 239.17 257.2 239.17 258.8 239.17 258.8 243.17"/><line class="cls-7" x1="256.77" y1="239.17" x2="256.77" y2="243.17"/><line class="cls-7" x1="254.82" y1="241.17" x2="258.75" y2="241.17"/><polygon class="cls-24" points="263.37 243.17 261.87 243.17 259.31 243.17 259.31 239.17 261.33 239.17 261.76 239.17 263.37 239.17 263.37 243.17"/><line class="cls-7" x1="261.33" y1="239.17" x2="261.33" y2="243.17"/><line class="cls-7" x1="259.38" y1="241.17" x2="263.31" y2="241.17"/><rect class="cls-21" x="238.58" y="250.9" width="16.84" height="7.64"/><line class="cls-7" x1="239.35" y1="235.79" x2="266.08" y2="235.81"/><text class="cls-25" transform="matrix(0.48, 0.88, -0.88, 0.48, 77.28, 260.27)">A</text><text class="cls-25" transform="matrix(0.57, 0.82, -0.82, 0.57, 84.45, 273.33)">U</text><text class="cls-25" transform="matrix(0.66, 0.75, -0.75, 0.66, 93.97, 286.64)">T</text><text class="cls-25" transform="translate(101.88 295.87) rotate(43.08)">Ó</text><text class="cls-25" transform="translate(114.74 307.77) rotate(36.06)">N</text><text class="cls-25" transform="translate(128.33 317.6) rotate(29.02)">O</text><text class="cls-25" transform="translate(143.81 326.18) rotate(21.16)">M</text><text class="cls-25" transform="translate(162.6 333.22) rotate(13.78)">A</text><text class="cls-25" transform="translate(177.42 336.64) rotate(9.44)"> </text><text class="cls-25" transform="translate(183.14 337.77) rotate(4.85)">D</text><text class="cls-25" transform="translate(199.85 339.03) rotate(-1.11)">E</text><text class="cls-25" transform="translate(212.11 338.67) rotate(-4.76)"> </text><text class="cls-25" transform="translate(217.92 338.36) rotate(-9.31)">N</text><text class="cls-25" transform="matrix(0.96, -0.28, 0.28, 0.96, 234.41, 335.56)">A</text><text class="cls-25" transform="translate(249.3 331.18) rotate(-22.07)">R</text><text class="cls-25" transform="translate(261.68 326) rotate(-26.16)">I</text><text class="cls-25" transform="matrix(0.86, -0.51, 0.51, 0.86, 267.58, 323.29)">Ñ</text><text class="cls-25" transform="translate(281.98 314.61) rotate(-37.92)">O</text><path class="cls-21" d="M250.18,199.35c0,0.11.29,1.53,0.32,1.58a0.27,0.27,0,0,1,0,.25c-0.09.21-.32,0.54-0.17,0.56a0.37,0.37,0,0,1,.27.2h0c0,0.09-.13.2-0.11,0.31a0.16,0.16,0,0,0,.15.17,0.09,0.09,0,0,1,0,.16,3.6,3.6,0,0,0,0,.41,4.67,4.67,0,0,0-.14.45,0.62,0.62,0,0,0,.24.58c0.25,0.22-.25.92-0.05,1.07s-0.35,1.22-.13,1.38-0.05.61,0.09,0.77a2.1,2.1,0,0,0-.06,1.34c0.08,0.12.32-.18,0.77-1.57,0.12-2.85.39-7.93,0.46-7.82m-9.2-27.27c-0.2-.1-0.25.51-0.29,0.35a0.54,0.54,0,0,0-.55-0.36,2.85,2.85,0,0,0-.7.61,0,0,0,0,1,0,0,0.31,0.31,0,0,1-.26,0,0.44,0.44,0,0,1-.2.11,1.14,1.14,0,0,0-.34-0.14c-0.09.06,0,.23-0.25,0.25a1,1,0,0,0-.41,0,1.15,1.15,0,0,1-.3.38c-0.13,0-.23.23-0.35,0.25s-0.18-.12-0.35-0.11a2.81,2.81,0,0,0-.86.28c-0.17.13-1.35,0.73-1.56,0.9a1.93,1.93,0,0,0-.53.53,0.4,0.4,0,0,1-.24.27,1.33,1.33,0,0,0-.49.4,0.87,0.87,0,0,1-.4.64h-0.07c-0.26,0-.64,0-0.71,0a0.65,0.65,0,0,1-.24.14,0.35,0.35,0,0,0-.28,0,0.86,0.86,0,0,1-.6.26,3.9,3.9,0,0,1-.62-0.37,0.39,0.39,0,0,0-.31.11,6.59,6.59,0,0,1-.15,1.46,2.08,2.08,0,0,1-.7,1.07,1.76,1.76,0,0,0-.59,1,5.21,5.21,0,0,1,0,.75,2.58,2.58,0,0,0,.11,1,0.63,0.63,0,0,1,.16.44,3.1,3.1,0,0,1-.22,1.22,2.86,2.86,0,0,0-.48.57,2,2,0,0,1-.58.67,0.66,0.66,0,0,0-.22.37c-0.1.34-.16,0.79-0.2,0.91a2.15,2.15,0,0,0-.52,1c0,0.55.17,1.08,0.09,1.21a2.29,2.29,0,0,0-.28.79c-0.14.55-.14,1.18-0.22,1.32a2.13,2.13,0,0,0,0,.89h0a0.54,0.54,0,0,0,.37.42,0.73,0.73,0,0,1,.39.44,5.72,5.72,0,0,0,.07.75,2,2,0,0,1,.72,1,9.37,9.37,0,0,0,0,1.14c0,0.09,0,.21,0,0.34a3.28,3.28,0,0,1,0,.48,0.55,0.55,0,0,0,.18.36,0.67,0.67,0,0,1-.06.35c0,0.16-.2.15,0,0.23s0.4,0.15.35,0.27-0.2.1,0,.2,0,0.15.17,0.15a0.06,0.06,0,0,1,.08.05,2.6,2.6,0,0,0-.08.34l0,0.06a0.8,0.8,0,0,0,.19.47l0.08,0.08a0.51,0.51,0,0,0,.4.31,4.22,4.22,0,0,1,.63-0.17,0.47,0.47,0,0,0-.07.23,1,1,0,0,0,.47.39l0.13,0.07a8.67,8.67,0,0,0,.71.61,2.75,2.75,0,0,1,.73.59,1.58,1.58,0,0,1,.23.31,0.76,0.76,0,0,0,.45.45,1.91,1.91,0,0,0,.46.42c0.13,0.05.31,0.1,0.49,0.16a4.25,4.25,0,0,1,.71.23c0.4,0.17.84,0.49,1.2,0.66a1.51,1.51,0,0,0,1.31.23l0.1-.06a4.77,4.77,0,0,1,1.83-1.13,5.05,5.05,0,0,1,1.13-.17c0.23,0,.37,0,0.46,0a6,6,0,0,0,1.36-1.09,6.73,6.73,0,0,1,.65-0.54l0.35-.24,0.4-.25a3.67,3.67,0,0,1,.36-0.17l0.29-.08a1,1,0,0,1,.71-0.05,2.3,2.3,0,0,1,.92.39c0.08,0.12-.14.21,0.21,0.46s0.35,0.47.6,0.25a4,4,0,0,1,.51-0.43c0.06,0,3.77-.27,3.79-0.29s-0.37-5.19-.93-8.52-5.21-15.79-8.27-18.76m-0.12.85,1.05-5.08M233,161.92s-1.93.51-1.75,0.72,0.41,0.55.47,0.63,0,0.23-.18.27-0.36.06-.4,0.09a0.4,0.4,0,0,1-.32.11,1.68,1.68,0,0,0-.48-0.15c-0.08,0-.45.41-0.61,0.53s-0.25.18-.11,0.19,0.26,0.14.2,0.22-0.18.17-.1,0.21a2.08,2.08,0,0,0,.7.09c0.25,0,.7,0,0.84,0a1.28,1.28,0,0,1,.51.08c0.17,0,0,.1,0,0.16a0.47,0.47,0,0,0,.14.41,1.06,1.06,0,0,0,.6.24,0.32,0.32,0,0,1,.3.34c0,0.17-.07.25,0.11,0.32s0.53,0.52.38,0.41-0.4-.47-0.38-0.3,0.25,1.63.28,1.85a0.39,0.39,0,0,1-.1.35,0.3,0.3,0,0,1-.15.12,2.31,2.31,0,0,0-.51,0,0.68,0.68,0,0,1-.45.21,11.82,11.82,0,0,0-1.4.27,13,13,0,0,1-1.46.27,0.74,0.74,0,0,0-.46.41,2.54,2.54,0,0,0-.43.39,0.23,0.23,0,0,0,.06.37,1.06,1.06,0,0,1,.39.61l0,0.1a5.79,5.79,0,0,0,.26.52,11.86,11.86,0,0,1,.21,1.52,6.67,6.67,0,0,0,0,.76,0.7,0.7,0,0,0,.31.45c0-.13.25,0.08,0.29,0.35a1.85,1.85,0,0,0,.28.89,1,1,0,0,0,.74-0.2l0.16-.19a0.3,0.3,0,0,1,.36-0.1c0.2,0.1.9,0.83,1,.85s0.25,0.05.31-.06a0.85,0.85,0,0,1,.16-0.48,2.38,2.38,0,0,1,.65-0.41,3.48,3.48,0,0,0,1-.4,0.42,0.42,0,0,0,.28-0.41c0-.2.53-0.55,0.53-0.81a1.66,1.66,0,0,1,.24-0.91c0.18-.16.16-0.2,0-0.33a0.71,0.71,0,0,1-.4-0.58,5.08,5.08,0,0,1,.31-1,1.19,1.19,0,0,0,.06-0.43c0-.06.62-0.5,0.78-0.73a1.43,1.43,0,0,0,.49-0.91,2.32,2.32,0,0,0-.14-0.24,0.94,0.94,0,0,1-.23-0.55,1,1,0,0,1,.35-0.68,1.28,1.28,0,0,1,.6-0.1c0.3-.05,1.35-0.16,1.35-0.16s-3.36-3.08-3.75-3.48A21,21,0,0,0,233,161.92Z" transform="translate(-1.11 0.57)"/><path class="cls-26" d="M250.28,199.43c0,0.11.29,1.53,0.32,1.58a0.27,0.27,0,0,1,0,.25c-0.08.21-.3,0.54-0.16,0.56a0.36,0.36,0,0,1,.26.2h0c0,0.09-.12.2-0.1,0.31a0.16,0.16,0,0,0,.14.17,0.09,0.09,0,0,1,0,.16,3.71,3.71,0,0,0,0,.41c0,0.11-.11.33-0.13,0.45a0.64,0.64,0,0,0,.24.58c0.25,0.22-.23.92,0,1.07s-0.33,1.22-.11,1.37,0,0.61.09,0.76a2.16,2.16,0,0,0,0,1.34c0.08,0.12.31-.17,0.73-1.55,0.09-2.84.3-7.9,0.37-7.79M242.76,172c-0.2-.1-0.23.5-0.28,0.35a0.54,0.54,0,0,0-.54-0.37,2.7,2.7,0,0,0-.67.6,0,0,0,0,1,0,0,0.3,0.3,0,0,1-.25,0,0.41,0.41,0,0,1-.19.11,1.1,1.1,0,0,0-.33-0.15c-0.09.06,0,.23-0.24,0.24a0.89,0.89,0,0,0-.39,0,1.1,1.1,0,0,1-.29.37c-0.12,0-.22.23-0.34,0.24s-0.18-.12-0.33-0.11a2.6,2.6,0,0,0-.83.27c-0.16.12-1.29,0.72-1.49,0.88a1.83,1.83,0,0,0-.51.52,0.38,0.38,0,0,1-.23.27,1.25,1.25,0,0,0-.47.39,0.85,0.85,0,0,1-.38.63H234.9c-0.25,0-.61,0-0.68,0a0.61,0.61,0,0,1-.23.14,0.33,0.33,0,0,0-.27,0,0.8,0.8,0,0,1-.58.26,3.84,3.84,0,0,1-.61-0.37,0.36,0.36,0,0,0-.3.1,6.74,6.74,0,0,1-.13,1.45,2,2,0,0,1-.67,1.06,1.72,1.72,0,0,0-.56,1,5.37,5.37,0,0,1,0,.75,2.67,2.67,0,0,0,.12,1,0.65,0.65,0,0,1,.16.44,3.14,3.14,0,0,1-.2,1.22,2.74,2.74,0,0,0-.46.57,1.94,1.94,0,0,1-.55.66,0.65,0.65,0,0,0-.21.37c-0.09.34-.14,0.78-0.19,0.9a2.11,2.11,0,0,0-.49,1c0,0.55.17,1.07,0.1,1.21a2.28,2.28,0,0,0-.26.78c-0.13.54-.13,1.17-0.2,1.32a2.19,2.19,0,0,0,0,.89h0a0.54,0.54,0,0,0,.36.43,0.74,0.74,0,0,1,.38.44,5.93,5.93,0,0,0,.08.75,2.05,2.05,0,0,1,.7,1,9.64,9.64,0,0,0,0,1.14c0,0.09,0,.21,0,0.34a3.39,3.39,0,0,1,0,.48,0.57,0.57,0,0,0,.17.37,0.68,0.68,0,0,1-.06.35c0,0.16-.19.14,0,0.23s0.38,0.15.34,0.28-0.19.1,0,.2,0,0.15.16,0.15a0.06,0.06,0,0,1,.08.05,2.63,2.63,0,0,0-.07.33l0,0.06a0.83,0.83,0,0,0,.19.47l0.08,0.08a0.51,0.51,0,0,0,.39.31,3.91,3.91,0,0,1,.61-0.16,0.47,0.47,0,0,0-.06.23,1,1,0,0,0,.45.39l0.13,0.07a8.72,8.72,0,0,0,.69.61,2.76,2.76,0,0,1,.71.59,1.62,1.62,0,0,1,.22.32,0.77,0.77,0,0,0,.44.45,1.92,1.92,0,0,0,.45.42c0.13,0.06.3,0.1,0.48,0.16a4.08,4.08,0,0,1,.69.23c0.39,0.17.81,0.5,1.17,0.67a1.44,1.44,0,0,0,1.27.24l0.1-.06a4.46,4.46,0,0,1,1.75-1.1,4.69,4.69,0,0,1,1.09-.16c0.22,0,.35,0,0.45,0a5.6,5.6,0,0,0,1.3-1.07,6.34,6.34,0,0,1,.62-0.53l0.33-.23,0.38-.25a3.4,3.4,0,0,1,.34-0.16l0.28-.08a0.89,0.89,0,0,1,.69,0,2.24,2.24,0,0,1,.89.4c0.08,0.12-.13.21,0.2,0.46s0.35,0.47.59,0.26a3.77,3.77,0,0,1,.49-0.42c0.06,0,3.64-.23,3.65-0.25a41.29,41.29,0,0,0-1-8.5c-1.18-5-5.19-15.8-8.18-18.79m-0.11.84,1-5.06M233,161.92c-0.11-.07-1.54.5-1.36,0.71s0.4,0.56.46,0.64,0,0.22-.17.26-0.35.06-.38,0.09a0.37,0.37,0,0,1-.31.11,1.61,1.61,0,0,0-.46-0.16c-0.07,0-.43.4-0.59,0.52s-0.24.18-.11,0.19,0.25,0.14.2,0.22-0.17.17-.09,0.2a2,2,0,0,0,.68.1c0.24,0,.67,0,0.81,0a1.21,1.21,0,0,1,.5.09c0.17,0,0,.1,0,0.16a0.49,0.49,0,0,0,.14.41,1,1,0,0,0,.58.25,0.33,0.33,0,0,1,.3.34c0,0.17-.07.25,0.11,0.32s0.52,0.53.37,0.41-0.39-.48-0.37-0.3,0.26,1.63.29,1.85a0.39,0.39,0,0,1-.1.35,0.29,0.29,0,0,1-.15.12,2.15,2.15,0,0,0-.49,0,0.64,0.64,0,0,1-.43.21,11,11,0,0,0-1.34.26,12.06,12.06,0,0,1-1.4.25,0.71,0.71,0,0,0-.44.4,2.4,2.4,0,0,0-.41.38,0.23,0.23,0,0,0,.06.37,1.09,1.09,0,0,1,.38.61l0,0.1c0.06,0.2.23,0.43,0.26,0.53a12.3,12.3,0,0,1,.22,1.51,6.88,6.88,0,0,0,0,.76,0.72,0.72,0,0,0,.3.45c0-.13.24,0.08,0.29,0.35a1.92,1.92,0,0,0,.28.89,0.88,0.88,0,0,0,.71-0.19l0.15-.19a0.28,0.28,0,0,1,.35-0.09c0.2,0.1.87,0.84,1,.86s0.24,0.05.3-.06a0.85,0.85,0,0,1,.15-0.47,2.22,2.22,0,0,1,.63-0.4,3.23,3.23,0,0,0,.95-0.38,0.41,0.41,0,0,0,.27-0.4c0-.2.5-0.54,0.51-0.8a1.67,1.67,0,0,1,.22-0.9c0.17-.16.15-0.2,0-0.33a0.73,0.73,0,0,1-.39-0.58,5.1,5.1,0,0,1,.29-1,1.22,1.22,0,0,0,.05-0.43c0-.06.59-0.49,0.74-0.72a1.41,1.41,0,0,0,.46-0.9,2.4,2.4,0,0,0-.13-0.24,0.81,0.81,0,0,1,.1-1.23,1.19,1.19,0,0,1,.57-0.09c0.29,0,1.58.22,1.38,0A50.55,50.55,0,0,0,233,161.92Z" transform="translate(-1.11 0.57)"/><path class="cls-21" d="M156.87,180.12c-0.17.56,0,.18,0.13,0.36s0.32,0.2.37,0.32a0.49,0.49,0,0,0,.16.31c0.09,0,.25,0,0.24.13a0.78,0.78,0,0,0-.06.39,0.76,0.76,0,0,0,.35.34,0.82,0.82,0,0,0,.21.19,0.52,0.52,0,0,1,.25.3,0.53,0.53,0,0,0,.18.23c0.05,0.06.28,0.28,0.4,0.45s0.56,0.66.7,0.85a1.07,1.07,0,0,1,.28.55c0,0.15-.19.26-0.08,0.28a0.23,0.23,0,0,1,.24.14,0.84,0.84,0,0,1-.13.48c-0.06.14,0.11,0.08,0.08,0.17a0.65,0.65,0,0,0-.16.4,3.29,3.29,0,0,0,.59.77,0.83,0.83,0,0,1,.49.29,1.25,1.25,0,0,0,.52.47c0.18,0.06.57,0.09,0.66,0.15a8.76,8.76,0,0,0,1.08.73l1,0.48c0.31,0.15.68,0.22,0.84,0.33a0.81,0.81,0,0,0,.72,0,1,1,0,0,1,.5-0.26,0.83,0.83,0,0,1,.66.17,3.32,3.32,0,0,1,.55.43,4.72,4.72,0,0,0,.45.58l0.1,0.1a1.37,1.37,0,0,0,.49.38,2.08,2.08,0,0,1,.7.13l0.07,0a5.69,5.69,0,0,0,.73.32,0.73,0.73,0,0,0,.54,0l0,0c0.15-.06.36-0.07,0.3,0a0.38,0.38,0,0,0-.12.31l0,0c0.09,0.08.36,0.54,0.58,0.77s0.42,0.37.55,0.48l0.08,0.08c0.07,0.1-.07.15-0.08,0.24a1.28,1.28,0,0,0-.14.34c0,0.11,0,.18.12,0.2a0.42,0.42,0,0,1,.19.17,0.16,0.16,0,0,0,.24-0.12,1.28,1.28,0,0,0-.25-0.24c0-.05.09,0,0.15,0.08a0.69,0.69,0,0,1,.26.29c0.07,0.17.1,0.17,0.19,0.17a0.54,0.54,0,0,1,.34.27,2.64,2.64,0,0,0,.18.47,0.54,0.54,0,0,0,.33.06,0.47,0.47,0,0,1,.15,0,1.5,1.5,0,0,1,.59.22,0.61,0.61,0,0,0,.25.24c0-.05.07-0.2,0.11-0.09s0,0.35.17,0.37a0.39,0.39,0,0,0,.31-0.09c0.08,0,.22,0,0.12-0.16a0.6,0.6,0,0,1-.21-0.34,1,1,0,0,1,.21-0.22,3.71,3.71,0,0,1,.31-0.36,0.31,0.31,0,0,1,.28-0.12,0.67,0.67,0,0,1,.23.21c0.08,0.05.13,0,.14,0.09s0.14,0.12.14,0.21-0.06.1-.06,0.2a1.58,1.58,0,0,0,.34.63,1,1,0,0,1,.33.59c0,0.21,0,.4,0,0.54s0,0.82-.06,1,0.2,0.3.14,0.42a2.88,2.88,0,0,1-.48.82,0.5,0.5,0,0,0-.36.13,2,2,0,0,0-.11.34,0.37,0.37,0,0,0-.14.17s0,0.08,0,.13a0.26,0.26,0,0,1,0,.27,0.79,0.79,0,0,0-.36.1,0.42,0.42,0,0,0-.24.15,1.06,1.06,0,0,1-.06.45,0.91,0.91,0,0,0-.27.32,0.41,0.41,0,0,1,0,.27,1.5,1.5,0,0,0-.19.32c0,0.11.06,0.28,0,.4a0.5,0.5,0,0,0,0,.41,0.66,0.66,0,0,0,.27.29,1,1,0,0,0,.26-0.33c0-.08.06-0.1,0,0s0,0.14,0,.15,0.1,0,.06.15a3.7,3.7,0,0,1-.12.4c-0.05.13-.08,0.08-0.16,0.11l0,0a1.83,1.83,0,0,0-.32.33,0.75,0.75,0,0,0-.27.63,1.49,1.49,0,0,1,.24.7c-0.09.08-.21,0.07-0.18,0.2a2.73,2.73,0,0,1,.77.72,5.41,5.41,0,0,0,.5.88c0.07,0.14.4,1,.51,1.35s0.95,2,1.06,2.15a0.72,0.72,0,0,1,.12.49c0,0.06-.06-0.07-0.08,0a4,4,0,0,0,.55.85,1.82,1.82,0,0,0,.17.29c0.08,0.1,1.11.63,1.32,0.82a10,10,0,0,1,1,.77,0.42,0.42,0,0,0,.2.27,1.67,1.67,0,0,1,.43.34h0c0,0.11,0,.52,0,0.71a11,11,0,0,1,.07,1.22,5.29,5.29,0,0,1-.14,1.55,0.49,0.49,0,0,0-.16.29,7.42,7.42,0,0,1,.08,1.13c0,0.38-.11.71-0.13,0.92s-0.35,1.83-.44,2.1a6.52,6.52,0,0,0,.1.92,1.28,1.28,0,0,0-.27.43c0,0.18.08,1.34,0.09,1.53a4.56,4.56,0,0,1-.11.66,0.71,0.71,0,0,1,0,.4c-0.07.2-.73,2.13-0.83,2.39a0.78,0.78,0,0,1-.27.39,0.35,0.35,0,0,0-.1.37c0.06,0.15.13,0.64,0.2,0.84a1.26,1.26,0,0,1,0,.72,3.79,3.79,0,0,0-.23.5,4.33,4.33,0,0,0-.15.88,0.85,0.85,0,0,0,.27.5,0.68,0.68,0,0,0,.32-0.2c0.14,0,.41,0,0.38.06s-0.3.17-.24,0.28a0.27,0.27,0,0,1,.07.25,0.25,0.25,0,0,0-.13.25c0,0.19-.12.61-0.14,0.73s0.07,0.34.05,0.43-0.15.23-.15,0.29a3,3,0,0,1,.26.29,0.64,0.64,0,0,0-.32.19,0.15,0.15,0,0,0,.07.14,0.15,0.15,0,0,0-.07.08,0.21,0.21,0,0,0,0,.29c0.11,0,.17.11,0,0.08a0.23,0.23,0,0,0-.26.21c0,0.06.08,0.2,0.1,0.32a0.54,0.54,0,0,1-.07.38c-0.08.12-.16-0.11-0.18-0.19a2.32,2.32,0,0,1-.29-0.34c0-.09,0-0.16,0-0.14a1.26,1.26,0,0,0-.3.24c-0.07.06,0,.14,0,0.22s-0.06.09-.17,0.14a0.57,0.57,0,0,0-.33.3c0,0.12.08,0.22,0.14,0.19a0.9,0.9,0,0,0,0-.22c0-.07.16,0,0.27,0.09a0.23,0.23,0,0,0,.21.08c0.07,0,.18-0.06.23-0.06a0.38,0.38,0,0,1,.11.32,1.47,1.47,0,0,0-.19.26,1.51,1.51,0,0,0-.07.33,0.39,0.39,0,0,0,.36,0,0.33,0.33,0,0,1,.36.32c-0.05.21-.06,0.12-0.15,0.06a0.43,0.43,0,0,0-.41-0.09c-0.08.1-.19,0.16-0.08,0.26a0.22,0.22,0,0,1,.12.26,0.77,0.77,0,0,0-.06.25,0.55,0.55,0,0,0-.07.39c0.07,0,.11-0.1.14-0.18s0.14-.21.15,0a0.76,0.76,0,0,0-.06.41c0.1,0,.16,0,0,0.08s-0.17.07-.14,0.21a0.29,0.29,0,0,0,.14.17s0,0.07-.11.07-0.2.09-.12,0.14,0,0.1,0,.16a0.28,0.28,0,0,0,.19.15c0.08,0.05.1,0.09,0.16,0s0.11,0,.05,0-0.07.17,0,.12,0,0,0,.05-0.06.15-.12,0.2a0.29,0.29,0,0,0-.15.17c0,0.06,0,.21,0,0.18a0.92,0.92,0,0,0,.25-0.14c0.07-.07.1-0.19,0.07-0.07a0.53,0.53,0,0,1,0,.34l-0.26.15c-0.1.05-.16,0.07,0,0.07s0.22,0,.29.14,0.11,0.24.17,0.18a0.41,0.41,0,0,0,.11-0.29c0-.12,0-0.3,0-0.27a0.2,0.2,0,0,1,.09.11c0,0.07.1,0.26,0.11,0.18a0.45,0.45,0,0,1,0-.21c0,0.06-.06.26,0,0.21a0.69,0.69,0,0,1,.13-0.2c0,0.05.1,0,0,.1s-0.12.31-.07,0.26-0.05.07,0,.14,0.1,0.15.05,0.17-0.13.23-.07,0.22a2,2,0,0,1,.57,0,0.87,0.87,0,0,0,.18.23,0.13,0.13,0,0,1,.09.19,1.41,1.41,0,0,1-.27.27,0.25,0.25,0,0,1-.23.06,0.24,0.24,0,0,0-.22,0c-0.07,0-.15.19-0.1,0.21a0.41,0.41,0,0,0,.18.07c0.1,0,.21,0,0.12,0s-0.12.08,0,.08a1,1,0,0,0,.23.11c0.09,0,.09,0,0.09,0s0,0.07.1,0a0.34,0.34,0,0,0,.3-0.18,2.49,2.49,0,0,1,.07-0.72,0.4,0.4,0,0,1,.37-0.28,0.63,0.63,0,0,0,.46-0.26,0.44,0.44,0,0,1,.06-0.16,0.15,0.15,0,0,1,.23,0c0.18,0.12.36,0.26,0.33,0.17a2.78,2.78,0,0,1-.37-0.89,1.51,1.51,0,0,1,0-.95c0.22-.21.38-0.19,0.3-0.33s-0.15,0-.24,0-0.06-.07,0-0.07,0.1,0,.1-0.08,0.05-.08.05,0a0.25,0.25,0,0,0,.14.21,0.32,0.32,0,0,0,.34-0.11,5,5,0,0,0,.07-0.74,1.1,1.1,0,0,1,.43-0.55,2.23,2.23,0,0,0,.66-0.47,0.14,0.14,0,0,0-.1-0.18c-0.08,0-.08,0,0-0.07a0.44,0.44,0,0,0,.2-0.28,0.25,0.25,0,0,0-.18-0.31,2.87,2.87,0,0,1-.48-0.1,0.65,0.65,0,0,0-.13-0.15,0.63,0.63,0,0,1-.35-0.5,1.19,1.19,0,0,1,.33-0.8,1.38,1.38,0,0,1,.64-0.39c0.11,0,.18.14,0.23,0.07a1.88,1.88,0,0,1,.09-0.51,0.54,0.54,0,0,0,.15-0.44,0.34,0.34,0,0,1,0-.31,2.71,2.71,0,0,1,.35-0.35c0.12-.12.24-0.11,0.14-0.19s-0.23-.12-0.21-0.25,0.23-.1.31-0.07a1.72,1.72,0,0,0,.28.22,0.26,0.26,0,0,0,.19-0.31c0-.16,0-0.26-0.13-0.26s-0.16.16-.25,0.17a0.51,0.51,0,0,1-.29-0.11,0.4,0.4,0,0,1-.19-0.38c0-.24-0.1-0.65-0.08-0.81s0.1-.12.22-0.07a2.27,2.27,0,0,0,.79.32,1,1,0,0,0,.58-0.19,0.29,0.29,0,0,0,.12-0.27,1,1,0,0,1-.07-0.34,4.85,4.85,0,0,1,.25-0.52,1.3,1.3,0,0,1-.17-0.52c0.05-.2.22-0.18,0.23-0.07s0,0.34.06,0.21,0-.13.24-0.15a3.19,3.19,0,0,0,1-.16,7.25,7.25,0,0,0,1-.33,0.8,0.8,0,0,0,.41-0.34,1.39,1.39,0,0,1,.38-0.57,0.52,0.52,0,0,0,.17-0.42,0.33,0.33,0,0,0-.13-0.36,0.46,0.46,0,0,1-.32-0.3,4.29,4.29,0,0,1,.16-0.49,1.1,1.1,0,0,0-.47-0.48c-0.22-.08-0.35-0.06-0.32-0.24a0.21,0.21,0,0,1,.12-0.17,0.2,0.2,0,0,1,.16,0,2.32,2.32,0,0,0,.57.15,3.69,3.69,0,0,1,.36.23c0.13,0,.15.19,0.3,0.14a0.57,0.57,0,0,1,.33-0.09,0.62,0.62,0,0,0,.48,0,1.38,1.38,0,0,0,.6-0.46,2.06,2.06,0,0,1,.22-0.39l0.23-.31c0.16-.21.28-0.73,0.39-0.91a1.57,1.57,0,0,1,.44-0.42,3.48,3.48,0,0,0,.7-0.86,3.36,3.36,0,0,1,.48-1.13,2.67,2.67,0,0,0,.61-0.63,6.72,6.72,0,0,0,.11-0.7,5.55,5.55,0,0,1-.06-0.77,2.35,2.35,0,0,0,.08-0.57c0-.11-0.08-0.06,0-0.17a1.9,1.9,0,0,0,.31-0.15,3.48,3.48,0,0,1,.5-0.61,3,3,0,0,1,.29-0.23,1.7,1.7,0,0,1,.57-0.32c0.19,0,.4.21,0.36,0.08s-0.15-.12-0.09-0.19a2.82,2.82,0,0,1,.37-0.16c0.16-.09.17-0.15,0.13-0.21s0.11-.07.15-0.13,0,0,0,.05a0.31,0.31,0,0,0,.3,0,1.07,1.07,0,0,0,.38-0.22c0.08,0,0,.05,0,0.1a0.35,0.35,0,0,0,.38,0c0.2-.07.34,0,0.34-0.18a0.92,0.92,0,0,1,.36-0.45,0.53,0.53,0,0,0,.19-0.45,0.84,0.84,0,0,1,.31-0.58,2.36,2.36,0,0,0,.32-0.55,1.71,1.71,0,0,0,.15-0.24,3.56,3.56,0,0,0,0-.7,1,1,0,0,1,.18-0.53,0.31,0.31,0,0,0,.21-0.35,2.84,2.84,0,0,1,.08-1,5.12,5.12,0,0,0,0-1.24,5.75,5.75,0,0,1,0-.9c0.06-.12.17-0.12,0.08-0.23s-0.16-.19-0.09-0.17,0.24,0.23.2,0.13,0-.21,0-0.16a0.2,0.2,0,0,0,.11,0c0.06,0,.09.13,0.21-0.09s0.24-.48.39-0.8a1.38,1.38,0,0,1,.5-0.72,1.19,1.19,0,0,0,.44-0.47,4,4,0,0,0,.63-1.19A2.76,2.76,0,0,0,203,205c-0.24-.56-0.14-0.74-0.51-0.74a1.17,1.17,0,0,1-.93-0.3,3.59,3.59,0,0,0-.7-0.73,3.36,3.36,0,0,0-1.06-.6c-0.28,0-.36.14-0.64,0.12a5.6,5.6,0,0,1-1-.4,0.62,0.62,0,0,0-.44.1,0.88,0.88,0,0,1-.46-0.35,0.81,0.81,0,0,0-.41-0.4c-0.28-.14-1-0.51-1.17-0.56a0.57,0.57,0,0,0-.66.08,1.83,1.83,0,0,1-.45.67,0.81,0.81,0,0,0-.26.38c-0.06.1-.1,0.13-0.13,0a0.3,0.3,0,0,0-.12-0.19,0.66,0.66,0,0,1-.13-0.15c0-.05-0.17-0.14-0.2,0s0,0.3-.08.18a0.76,0.76,0,0,0-.13-0.21,0.74,0.74,0,0,1-.11-0.19,0.66,0.66,0,0,1-.07-0.34c0-.13,0-0.38-0.09-0.23a1.07,1.07,0,0,1-.37.5c-0.14,0-.13,0,0-0.08a0.91,0.91,0,0,0,.3-0.45,0.11,0.11,0,0,0-.19,0,0.92,0.92,0,0,1-.27.47c-0.15.07-.1,0,0-0.13a0.83,0.83,0,0,0,.16-0.39c0-.13.15-0.12,0.21-0.28s0-.18.11-0.21a0.38,0.38,0,0,0,.25-0.19c0-.07.17-0.12,0.2,0s0.11,0,.16-0.07a0.17,0.17,0,0,0,0-.23,1.39,1.39,0,0,1,.11-0.45,0.51,0.51,0,0,0-.38-0.38,1.36,1.36,0,0,1-.26-0.8,1.46,1.46,0,0,0-.15-0.72l-0.14-.11a4.08,4.08,0,0,1-.46-0.34,2.83,2.83,0,0,0-.57-0.56,3.11,3.11,0,0,0-.41-0.16,1.8,1.8,0,0,0-.58-0.15,4,4,0,0,0-.45,0,2,2,0,0,0-.31.16,0.23,0.23,0,0,1-.23-0.17c-0.06-.14-0.1-0.23-0.14-0.14s-0.11.21-.21,0.14l-0.09-.05a0.72,0.72,0,0,1-.28-0.26,1.42,1.42,0,0,0-.43-0.33,1.56,1.56,0,0,1-.2-0.42,2.28,2.28,0,0,0-.78-0.78l-0.1,0a4.3,4.3,0,0,0-.59,0c-0.09,0-.55,0-0.36-0.06s0.27,0,.32-0.25,0.17-.29,0-0.38a1.93,1.93,0,0,0-.36-0.24,0.39,0.39,0,0,0,0,.09,0.31,0.31,0,0,1-.18-0.15c0-.07-0.06,0-0.11.09s0,0,0,0a0.31,0.31,0,0,0-.19-0.26,1.18,1.18,0,0,0-.19.13,0.17,0.17,0,0,1,0-.19c0.05-.1-0.13-0.11,0-0.2a2.28,2.28,0,0,0,.44-0.1,0.33,0.33,0,0,0-.31-0.07,1.23,1.23,0,0,0-.87.12,0.74,0.74,0,0,1-.56.35,1,1,0,0,1-.53-0.16,0.59,0.59,0,0,0-.33-0.27c-0.15,0-.75.11-0.95,0.11s-0.26,0-.29-0.17a0.56,0.56,0,0,0-.33-0.53,2.25,2.25,0,0,0-.73,0c-0.2.07-.49,0.23-0.56,0.26a0.6,0.6,0,0,0-.34.32c0,0.14.33,0.57,0.32,0.69a0.59,0.59,0,0,1-.2.5,0.94,0.94,0,0,1-.5-0.54c0-.11.32-0.51,0.32-0.62s-0.24-.34-0.25-0.44v0a0.45,0.45,0,0,1,.28-0.3c0.14,0,.4-0.28.25-0.41a0.34,0.34,0,0,0-.46,0,1.64,1.64,0,0,1-.25.28l-0.22.16a1.21,1.21,0,0,1-.29.32,0.76,0.76,0,0,0-.55.07c-0.08.16-.14,0.39-0.22,0.31a0.53,0.53,0,0,0-.12-0.21,0.27,0.27,0,0,0-.26.1,1.11,1.11,0,0,0-.29.46,1,1,0,0,1-.1.56,3.38,3.38,0,0,0-.54.65,1.41,1.41,0,0,1-.14.46c-0.05,0-.29-0.5-0.43-0.66s-0.32-.3-0.32-0.23-0.17,0-.27-0.07a1.76,1.76,0,0,0-.57-0.22,0.32,0.32,0,0,0-.28.13,1.65,1.65,0,0,1-.4.24,0.48,0.48,0,0,1-.19.13,0.7,0.7,0,0,1-.53-0.1,0.75,0.75,0,0,0-.36-0.17,0.52,0.52,0,0,1-.21-0.21,1.87,1.87,0,0,1-.15-0.25c-0.08-.13-0.33-0.4-0.49-0.64a0.81,0.81,0,0,1-.14-0.22,3.18,3.18,0,0,1,.17-0.68,9.68,9.68,0,0,0,.12-1c0-.27.2-0.47,0.18-0.69s0-.27,0-0.35,0-.07,0-0.1l-0.1,0a3.9,3.9,0,0,1-.54-0.48,1.24,1.24,0,0,0-.79-0.08,2.13,2.13,0,0,1-.68.17,1.08,1.08,0,0,0-.49-0.15,1.79,1.79,0,0,1-.51.12l-0.09,0-0.2-.13c-0.06-.06-0.06-0.11.05-0.19a1.13,1.13,0,0,0,.34-0.88,1,1,0,0,1,.18-0.64l0,0a1.87,1.87,0,0,0,.23-0.62,1.72,1.72,0,0,1,.08-1,1.24,1.24,0,0,0,.37-0.59c0-.17,0-0.32-0.35-0.3a3.66,3.66,0,0,0-1.71.4,3.4,3.4,0,0,0-.19,1,7.86,7.86,0,0,1-.49.62,0.4,0.4,0,0,1-.06.25,0.85,0.85,0,0,1-.33-0.12,2.82,2.82,0,0,0-.93.19c-0.26.11-.43,0.24-0.57,0.11a0.91,0.91,0,0,0-.43-0.35,0.69,0.69,0,0,1-.68-0.45,3.06,3.06,0,0,0-.39-0.87,3.63,3.63,0,0,1-.41-1.16,3.16,3.16,0,0,1,0-1.16,8.65,8.65,0,0,1,0-.88,7.9,7.9,0,0,0,.36-0.75,0.74,0.74,0,0,0,0-.19c0-.33-0.22-0.8-0.25-1s0,0,.12-0.16a1.71,1.71,0,0,0,0-.3,2.28,2.28,0,0,1,.2-0.14,0.93,0.93,0,0,0,.39-0.39c0-.18.06-0.13,0.12-0.07a1.2,1.2,0,0,0,.63-0.3c0.19-.14.35-0.3,0.24-0.35s-0.29-.2-0.11-0.15,0.19,0.17.35,0.07a0.63,0.63,0,0,1,.42-0.22,0.76,0.76,0,0,1,.57.15c0.13,0.15.21,0.14,0.3,0.07a0.32,0.32,0,0,1,.37-0.07,1.26,1.26,0,0,0,.47.35c0.16,0,.38-0.35.48-0.3a1,1,0,0,1,.4.42c0,0.07.13-.05,0.16-0.1s0,0-.08-0.11-0.29-.24-0.21-0.3,0.11,0,0-.08a0.37,0.37,0,0,1-.08-0.21c0-.08-0.05-0.09-0.12,0s-0.41.06-.37-0.06a0.19,0.19,0,0,1,.25-0.12,0.23,0.23,0,0,0,.31.08,2.35,2.35,0,0,1,.62-0.09,1,1,0,0,1,.36-0.06c0.06,0,0,.13.1,0.13s0.25-.06.45-0.06a1.32,1.32,0,0,1,.71,0c0.15,0.13.2,0.33,0.31,0.41a0.25,0.25,0,0,0,.29.05,2.71,2.71,0,0,1,.46-0.26c0.07,0,.29.39,0.45,0.52a1.08,1.08,0,0,1,.43.51c0,0.16-.07.38-0.07,0.5a0.52,0.52,0,0,0,.15.24c0,0.06-.07,0-0.06.14a0.6,0.6,0,0,0,.12.47c0.13,0.11.22,0.07,0.22,0.17s0.08,0,.11.07a1.24,1.24,0,0,0,0,.41,1.05,1.05,0,0,0,.3.28,4.42,4.42,0,0,0,.27.53,1.38,1.38,0,0,0,.21-0.13,0.21,0.21,0,0,1,0,.22s0.11,0,.11-0.07a1.59,1.59,0,0,1,.1-0.61,1.79,1.79,0,0,0,0-1.21,2.56,2.56,0,0,1-.29-0.79,6.42,6.42,0,0,0-.27-0.91,3.08,3.08,0,0,1-.24-1.15,2.34,2.34,0,0,1,.4-0.82,2.51,2.51,0,0,1,.54-0.48,3.39,3.39,0,0,0,.39-0.41,0.52,0.52,0,0,1,.13-0.23,2,2,0,0,1,.4-0.28,1.4,1.4,0,0,0,.34-0.15,3.91,3.91,0,0,1,.48-0.49,2.1,2.1,0,0,0,.47-0.11c0.09-.1.14-0.21,0-0.17a0.72,0.72,0,0,1-.37.07c0-.07.14,0,0.18-0.11a0.29,0.29,0,0,0-.06-0.24c0-.07,0-0.15,0-0.12s0.07,0.06.08,0,0.05-.12.05,0a0.14,0.14,0,0,0,.1.17A0.45,0.45,0,0,0,178,174a0.63,0.63,0,0,0,.16-0.31s-0.12,0-.16.06a0.09,0.09,0,0,1-.15,0c0-.06,0-0.06-0.1-0.07a0.44,0.44,0,0,1-.26,0c0-.06-0.06-0.17,0-0.12s0.19,0.14.26,0a0.15,0.15,0,0,1,.18-0.1c0.1,0,.11,0,0-0.06a0.23,0.23,0,0,1-.07-0.23,0.26,0.26,0,0,0,0-.28,0.91,0.91,0,0,1-.38-0.12,1.16,1.16,0,0,0-.25-0.21c-0.07,0,0-.06.11-0.06a0.52,0.52,0,0,0,.31,0c0.07-.07,0-0.13-0.06-0.2a2.72,2.72,0,0,1-.49-0.51,0.31,0.31,0,0,1,0-.34,0.59,0.59,0,0,0,.12-0.29c0-.08.07,0.07,0.05,0.15a0.22,0.22,0,0,0-.06.19,0.46,0.46,0,0,0,.29.26,1,1,0,0,0,0-.36,1.1,1.1,0,0,1,.06-0.46,0.54,0.54,0,0,1,.26-0.25,0.42,0.42,0,0,0-.13.4,1,1,0,0,0,.1.58,0.82,0.82,0,0,1,.27.47,3.11,3.11,0,0,0-.21.44c0,0.16,0,.23,0,0.16a4.8,4.8,0,0,1,.27-0.45,1.57,1.57,0,0,0,.31-0.74c0-.19-0.31-0.6-0.33-0.75a0.27,0.27,0,0,1,.07-0.31c0.11-.08.32-0.12,0.21,0s-0.2,0-.19.2a0.51,0.51,0,0,0,.19.33c0.11,0.1.12,0.26,0.2,0.12s0.21-.29.33-0.5a0.76,0.76,0,0,0,.14-0.57,0.4,0.4,0,0,1-.07-0.32,0.68,0.68,0,0,0,.1-0.26c0-.08.05,0,0.05,0s-0.11.24,0,.15a3.74,3.74,0,0,1,.37-0.29,0.92,0.92,0,0,1,.56-0.2,0.71,0.71,0,0,0,.57-0.07c0-.14,0-0.36.07-0.27s0,0.22.1,0.22a0.41,0.41,0,0,0,.28-0.13c0.07-.06.06,0,0.07,0.06s0.07,0,.17,0a1.21,1.21,0,0,0,.29-0.19,0.14,0.14,0,0,0-.07-0.19c-0.11,0-.15,0-0.11,0a0.12,0.12,0,0,1,0,.19c-0.08,0-.15,0-0.17-0.06a0.82,0.82,0,0,0-.19-0.35c-0.07-.07-0.07-0.09,0-0.16a0.19,0.19,0,0,0,0-.21c0-.1-0.08-0.08,0-0.22a2.61,2.61,0,0,0,.15-0.31c0.07-.12.12-0.16,0.17-0.27a0.19,0.19,0,0,1,.16-0.15,0.23,0.23,0,0,0,.16-0.13s0,0,0,0a0.26,0.26,0,0,0,.33-0.16c0.09-.19.08-0.37,0.15-0.31a0.37,0.37,0,0,0,.18.22,0.54,0.54,0,0,0,.27-0.17,1.17,1.17,0,0,0,.37-0.15,2,2,0,0,0,.35-0.25l0,0a0.17,0.17,0,0,1,.13-0.14,1.71,1.71,0,0,0,.37-0.19c0.09-.08,0-0.05.12,0a1.1,1.1,0,0,0,.44-0.23c0.16-.08.23,0,0.33-0.08s0.14,0,.06-0.12-0.16-.28-0.1-0.22a0.46,0.46,0,0,0,.19.21c0.09,0,.13,0,0,0.11s-0.34.17-.25,0.21a0.38,0.38,0,0,0,.22,0c0.14,0,.45,0,0.53,0s0.07,0.07,0,.08-0.05.05,0,.06-0.1,0-.17,0a0.15,0.15,0,0,0-.16.07c0,0.06,0,.18-0.08.1a1.49,1.49,0,0,0-.13-0.18s0-.14-0.06-0.06,0,0.11-.08,0,0-.1-0.13,0a0.69,0.69,0,0,1-.19.19,3.29,3.29,0,0,0-.39.25,0.88,0.88,0,0,0-.21.39,0.57,0.57,0,0,0,0,.44,0.69,0.69,0,0,0,.33.17,0.58,0.58,0,0,0,.18-0.12,6.08,6.08,0,0,0,.44-0.47,1.65,1.65,0,0,1,.37-0.39c0,0.09-.06.15,0,0.16a0.34,0.34,0,0,0,.31-0.05c0-.09,0-0.06.18-0.12a5.75,5.75,0,0,0,.72-0.32c0.2-.11.41-0.11,0.46-0.16s0-.08,0-0.13-0.08,0,0-.1,0.1-.11,0-0.11-0.31.06-.34-0.08-0.14-.1-0.21,0a0.38,0.38,0,0,1-.28.09c-0.1,0-.11-0.06-0.28-0.1a1,1,0,0,1-.49-0.11,0.14,0.14,0,0,1,0-.17s0-.07-0.11-0.09a0.41,0.41,0,0,1-.33-0.17,2.08,2.08,0,0,1-.11-0.48,0.19,0.19,0,0,0-.22-0.14c-0.06,0-.18,0-0.08-0.07a0.57,0.57,0,0,0,.25-0.32,0.19,0.19,0,0,0,0-.23,0.8,0.8,0,0,0-.09-0.22,0.11,0.11,0,0,0-.15.06,0.32,0.32,0,0,1-.1.2,0.15,0.15,0,0,1-.19-0.08c0-.09.09-0.09-0.06-0.15s-0.24-.15-0.16-0.15a0.43,0.43,0,0,1,.23,0,0.25,0.25,0,0,0,.26.05l0.41-.27a0.4,0.4,0,0,0,.26-0.15,0.25,0.25,0,0,0-.07-0.2c-0.06-.07-0.12-0.1-0.06-0.12s0.18,0,.11,0a1.86,1.86,0,0,0-.92-0.33,4,4,0,0,0-1.38.51l-0.73.49a6.85,6.85,0,0,0-.73.91,0.57,0.57,0,0,1-.39.24c-0.19.09-.16,0-0.06-0.06a4.22,4.22,0,0,0,.71-0.83c0-.14.17-0.17,0-0.26a3.89,3.89,0,0,1-.52-0.21c-0.07-.08.47,0.18,0.62,0.18a1.2,1.2,0,0,0,.45-0.48,1.81,1.81,0,0,1,.49-0.49,0.81,0.81,0,0,0,.58-0.17,1.82,1.82,0,0,1,.32-0.63,1,1,0,0,1,.38-0.15c0.11,0,2.19,0,2.43,0a1.79,1.79,0,0,0,.47.1l0.71-.15a1.17,1.17,0,0,0,.6-0.29c0.21-.21.33-0.49,0.51-0.64a7.35,7.35,0,0,1,.89-0.11,2.26,2.26,0,0,0,.77-0.66c0.06-.14.07-0.22-0.1-0.28s-0.42-.13-0.29-0.18,0.28,0,.27-0.16,0-.26-0.06-0.28,0,0,.06-0.08,0.16-.12,0-0.28S190,158.11,190,158s-0.1-.14-0.19-0.07a0.36,0.36,0,0,1-.29.13c-0.13,0,0-.08,0-0.18s0-.15-0.08-0.23a0.34,0.34,0,0,0-.3-0.19,0.69,0.69,0,0,0-.38.14,0.47,0.47,0,0,0-.22.13,0.67,0.67,0,0,1-.39.33,2.55,2.55,0,0,1-.42.15c-0.09,0-.31-0.27-0.42-0.33s0-.12.12,0,0.25,0.26.35,0.14a1.33,1.33,0,0,1,.44-0.35c0.14-.09-0.07,0-0.13-0.08s0.07,0,.25-0.05a3,3,0,0,0,.48-0.17,1.65,1.65,0,0,0,.5-0.25,0.4,0.4,0,0,0-.17-0.18,0.51,0.51,0,0,1-.09-0.19s-0.06,0-.15.05a0.62,0.62,0,0,1-.51-0.18c-0.11-.14-0.07-0.14-0.28.08s-0.4.24-.29,0.11,0.22-.21.15-0.3a0.84,0.84,0,0,0-.52.13c-0.09,0-.14,0,0-0.11s0.14-.16.18-0.23a0.36,0.36,0,0,0-.1-0.34,0.48,0.48,0,0,1-.33-0.2c0-.15-0.14-0.09-0.23-0.11a0.46,0.46,0,0,1-.22-0.26c0-.07,0,0-0.11,0s-0.07,0-.06-0.12a0.28,0.28,0,0,0-.15-0.23c-0.07-.07-0.18-0.29-0.09-0.19s0.19,0.26.3,0.19,0-.14.16-0.18,0.25-.13.16-0.27a0.91,0.91,0,0,0-.37-0.32c-0.13-.06-0.29-0.07-0.2-0.1a0.34,0.34,0,0,0,.25-0.22c0-.09-0.11,0-0.2,0s-8.19,2.58-18.36,10.77C163.5,168.42,156.87,180.12,156.87,180.12Z" transform="translate(-1.11 0.57)"/><path class="cls-16" d="M156.46,179.6a2.13,2.13,0,0,0,.16,1.56,1.24,1.24,0,0,0-.16-0.41,0.49,0.49,0,0,0,.16.31c0.09,0,.25,0,0.24.13a0.78,0.78,0,0,0-.06.39,0.76,0.76,0,0,0,.35.34,0.82,0.82,0,0,0,.21.19,0.52,0.52,0,0,1,.25.3,0.53,0.53,0,0,0,.18.23c0.05,0.06.28,0.28,0.4,0.45s0.56,0.66.7,0.85a1.07,1.07,0,0,1,.28.55c0,0.15-.19.26-0.08,0.28a0.23,0.23,0,0,1,.24.14,0.84,0.84,0,0,1-.13.48c-0.06.14,0.11,0.08,0.08,0.17a0.65,0.65,0,0,0-.16.4,3.29,3.29,0,0,0,.59.77,0.83,0.83,0,0,1,.49.29,1.25,1.25,0,0,0,.52.47c0.18,0.06.57,0.09,0.66,0.15a8.76,8.76,0,0,0,1.08.73l1,0.48c0.31,0.15.68,0.22,0.84,0.33a0.81,0.81,0,0,0,.72,0,1,1,0,0,1,.5-0.26,0.83,0.83,0,0,1,.66.17,3.32,3.32,0,0,1,.55.43,4.72,4.72,0,0,0,.45.58l0.1,0.1a1.37,1.37,0,0,0,.49.38,2.08,2.08,0,0,1,.7.13l0.07,0a5.69,5.69,0,0,0,.73.32,0.73,0.73,0,0,0,.54,0l0,0c0.15-.06.36-0.07,0.3,0a0.38,0.38,0,0,0-.12.31l0,0c0.09,0.08.36,0.54,0.58,0.77s0.42,0.37.55,0.48l0.08,0.08c0.07,0.1-.07.15-0.08,0.24a1.28,1.28,0,0,0-.14.34c0,0.11,0,.18.12,0.2a0.42,0.42,0,0,1,.19.17,0.16,0.16,0,0,0,.24-0.12,1.28,1.28,0,0,0-.25-0.24c0-.05.09,0,0.15,0.08a0.69,0.69,0,0,1,.26.29c0.07,0.17.1,0.17,0.19,0.17a0.54,0.54,0,0,1,.34.27,2.64,2.64,0,0,0,.18.47,0.54,0.54,0,0,0,.33.06,0.47,0.47,0,0,1,.15,0,1.5,1.5,0,0,1,.59.22,0.61,0.61,0,0,0,.25.24c0-.05.07-0.2,0.11-0.09s0,0.35.17,0.37a0.39,0.39,0,0,0,.31-0.09c0.08,0,.22,0,0.12-0.16a0.6,0.6,0,0,1-.21-0.34,1,1,0,0,1,.21-0.22,3.71,3.71,0,0,1,.31-0.36,0.31,0.31,0,0,1,.28-0.12,0.67,0.67,0,0,1,.23.21c0.08,0.05.13,0,.14,0.09s0.14,0.12.14,0.21-0.06.1-.06,0.2a1.58,1.58,0,0,0,.34.63,1,1,0,0,1,.33.59c0,0.21,0,.4,0,0.54s0,0.82-.06,1,0.2,0.3.14,0.42a2.88,2.88,0,0,1-.48.82,0.5,0.5,0,0,0-.36.13,2,2,0,0,0-.11.34,0.37,0.37,0,0,0-.14.17s0,0.08,0,.13a0.26,0.26,0,0,1,0,.27,0.79,0.79,0,0,0-.36.1,0.42,0.42,0,0,0-.24.15,1.06,1.06,0,0,1-.06.45,0.91,0.91,0,0,0-.27.32,0.41,0.41,0,0,1,0,.27,1.5,1.5,0,0,0-.19.32c0,0.11.06,0.28,0,.4a0.5,0.5,0,0,0,0,.41,0.66,0.66,0,0,0,.27.29,1,1,0,0,0,.26-0.33c0-.08.06-0.1,0,0s0,0.14,0,.15,0.1,0,.06.15a3.7,3.7,0,0,1-.12.4c-0.05.13-.08,0.08-0.16,0.11l0,0a1.83,1.83,0,0,0-.32.33,0.75,0.75,0,0,0-.27.63,1.49,1.49,0,0,1,.24.7c-0.09.08-.21,0.07-0.18,0.2a2.73,2.73,0,0,1,.77.72,5.41,5.41,0,0,0,.5.88c0.07,0.14.4,1,.51,1.35s0.95,2,1.06,2.15a0.72,0.72,0,0,1,.12.49c0,0.06-.06-0.07-0.08,0a4,4,0,0,0,.55.85,1.82,1.82,0,0,0,.17.29c0.08,0.1,1.11.63,1.32,0.82a10,10,0,0,1,1,.77,0.42,0.42,0,0,0,.2.27,1.67,1.67,0,0,1,.43.34h0c0,0.11,0,.52,0,0.71a11,11,0,0,1,.07,1.22,5.29,5.29,0,0,1-.14,1.55,0.49,0.49,0,0,0-.16.29,7.42,7.42,0,0,1,.08,1.13c0,0.38-.11.71-0.13,0.92s-0.35,1.83-.44,2.1a6.52,6.52,0,0,0,.1.92,1.28,1.28,0,0,0-.27.43c0,0.18.08,1.34,0.09,1.53a4.56,4.56,0,0,1-.11.66,0.71,0.71,0,0,1,0,.4c-0.07.2-.73,2.13-0.83,2.39a0.78,0.78,0,0,1-.27.39,0.35,0.35,0,0,0-.1.37c0.06,0.15.13,0.64,0.2,0.84a1.26,1.26,0,0,1,0,.72,3.79,3.79,0,0,0-.23.5,4.33,4.33,0,0,0-.15.88,0.85,0.85,0,0,0,.27.5,0.68,0.68,0,0,0,.32-0.2c0.14,0,.41,0,0.38.06s-0.3.17-.24,0.28a0.27,0.27,0,0,1,.07.25,0.25,0.25,0,0,0-.13.25c0,0.19-.12.61-0.14,0.73s0.07,0.34.05,0.43-0.15.23-.15,0.29a3,3,0,0,1,.26.29,0.64,0.64,0,0,0-.32.19,0.15,0.15,0,0,0,.07.14,0.15,0.15,0,0,0-.07.08,0.21,0.21,0,0,0,0,.29c0.11,0,.17.11,0,0.08a0.23,0.23,0,0,0-.26.21c0,0.06.08,0.2,0.1,0.32a0.54,0.54,0,0,1-.07.38c-0.08.12-.16-0.11-0.18-0.19a2.32,2.32,0,0,1-.29-0.34c0-.09,0-0.16,0-0.14a1.26,1.26,0,0,0-.3.24c-0.07.06,0,.14,0,0.22s-0.06.09-.17,0.14a0.57,0.57,0,0,0-.33.3c0,0.12.08,0.22,0.14,0.19a0.9,0.9,0,0,0,0-.22c0-.07.16,0,0.27,0.09a0.23,0.23,0,0,0,.21.08c0.07,0,.18-0.06.23-0.06a0.38,0.38,0,0,1,.11.32,1.47,1.47,0,0,0-.19.26,1.51,1.51,0,0,0-.07.33,0.39,0.39,0,0,0,.36,0,0.33,0.33,0,0,1,.36.32c-0.05.21-.06,0.12-0.15,0.06a0.43,0.43,0,0,0-.41-0.09c-0.08.1-.19,0.16-0.08,0.26a0.22,0.22,0,0,1,.12.26,0.77,0.77,0,0,0-.06.25,0.55,0.55,0,0,0-.07.39c0.07,0,.11-0.1.14-0.18s0.14-.21.15,0a0.76,0.76,0,0,0-.06.41c0.1,0,.16,0,0,0.08s-0.17.07-.14,0.21a0.29,0.29,0,0,0,.14.17s0,0.07-.11.07-0.2.09-.12,0.14,0,0.1,0,.16a0.28,0.28,0,0,0,.19.15c0.08,0.05.1,0.09,0.16,0s0.11,0,.05,0-0.07.17,0,.12,0,0,0,.05-0.06.15-.12,0.2a0.29,0.29,0,0,0-.15.17c0,0.06,0,.21,0,0.18a0.92,0.92,0,0,0,.25-0.14c0.07-.07.1-0.19,0.07-0.07a0.53,0.53,0,0,1,0,.34l-0.26.15c-0.1.05-.16,0.07,0,0.07s0.22,0,.29.14,0.11,0.24.17,0.18a0.41,0.41,0,0,0,.11-0.29c0-.12,0-0.3,0-0.27a0.2,0.2,0,0,1,.09.11c0,0.07.1,0.26,0.11,0.18a0.45,0.45,0,0,1,0-.21c0,0.06-.06.26,0,0.21a0.69,0.69,0,0,1,.13-0.2c0,0.05.1,0,0,.1s-0.12.31-.07,0.26-0.05.07,0,.14,0.1,0.15.05,0.17-0.13.23-.07,0.22a2,2,0,0,1,.57,0,0.87,0.87,0,0,0,.18.23,0.13,0.13,0,0,1,.09.19,1.41,1.41,0,0,1-.27.27,0.25,0.25,0,0,1-.23.06,0.24,0.24,0,0,0-.22,0c-0.07,0-.15.19-0.1,0.21a0.41,0.41,0,0,0,.18.07c0.1,0,.21,0,0.12,0s-0.12.08,0,.08a1,1,0,0,0,.23.11c0.09,0,.09,0,0.09,0s0,0.07.1,0a0.34,0.34,0,0,0,.3-0.18,2.49,2.49,0,0,1,.07-0.72,0.4,0.4,0,0,1,.37-0.28,0.63,0.63,0,0,0,.46-0.26,0.44,0.44,0,0,1,.06-0.16,0.15,0.15,0,0,1,.23,0c0.18,0.12.36,0.26,0.33,0.17a2.78,2.78,0,0,1-.37-0.89,1.51,1.51,0,0,1,0-.95c0.22-.21.38-0.19,0.3-0.33s-0.15,0-.24,0-0.06-.07,0-0.07,0.1,0,.1-0.08,0.05-.08.05,0a0.25,0.25,0,0,0,.14.21,0.32,0.32,0,0,0,.34-0.11,5,5,0,0,0,.07-0.74,1.1,1.1,0,0,1,.43-0.55,2.23,2.23,0,0,0,.66-0.47,0.14,0.14,0,0,0-.1-0.18c-0.08,0-.08,0,0-0.07a0.44,0.44,0,0,0,.2-0.28A0.25,0.25,0,0,0,183,237a2.87,2.87,0,0,1-.48-0.1,0.65,0.65,0,0,0-.13-0.15,0.63,0.63,0,0,1-.35-0.5,1.19,1.19,0,0,1,.33-0.8,1.38,1.38,0,0,1,.64-0.39c0.11,0,.18.14,0.23,0.07a1.88,1.88,0,0,1,.09-0.51,0.54,0.54,0,0,0,.15-0.44,0.34,0.34,0,0,1,0-.31,2.71,2.71,0,0,1,.35-0.35c0.12-.12.24-0.11,0.14-0.19s-0.23-.12-0.21-0.25,0.23-.1.31-0.07a1.72,1.72,0,0,0,.28.22,0.26,0.26,0,0,0,.19-0.31c0-.16,0-0.26-0.13-0.26s-0.16.16-.25,0.17a0.51,0.51,0,0,1-.29-0.11,0.4,0.4,0,0,1-.19-0.38c0-.24-0.1-0.65-0.08-0.81s0.1-.12.22-0.07a2.27,2.27,0,0,0,.79.32,1,1,0,0,0,.58-0.19,0.29,0.29,0,0,0,.12-0.27,1,1,0,0,1-.07-0.34,4.85,4.85,0,0,1,.25-0.52,1.3,1.3,0,0,1-.17-0.52c0.05-.2.22-0.18,0.23-0.07s0,0.34.06,0.21,0-.13.24-0.15a3.19,3.19,0,0,0,1-.16,7.25,7.25,0,0,0,1-.33,0.8,0.8,0,0,0,.41-0.34,1.39,1.39,0,0,1,.38-0.57,0.52,0.52,0,0,0,.17-0.42,0.33,0.33,0,0,0-.13-0.36,0.46,0.46,0,0,1-.32-0.3,4.29,4.29,0,0,1,.16-0.49,1.1,1.1,0,0,0-.47-0.48c-0.22-.08-0.35-0.06-0.32-0.24a0.21,0.21,0,0,1,.12-0.17,0.2,0.2,0,0,1,.16,0,2.32,2.32,0,0,0,.57.15,3.69,3.69,0,0,1,.36.23c0.13,0,.15.19,0.3,0.14a0.57,0.57,0,0,1,.33-0.09,0.62,0.62,0,0,0,.48,0,1.38,1.38,0,0,0,.6-0.46,2.06,2.06,0,0,1,.22-0.39l0.23-.31c0.16-.21.28-0.73,0.39-0.91a1.57,1.57,0,0,1,.44-0.42,3.48,3.48,0,0,0,.7-0.86,3.36,3.36,0,0,1,.48-1.13,2.67,2.67,0,0,0,.61-0.63,6.72,6.72,0,0,0,.11-0.7,5.55,5.55,0,0,1-.06-0.77,2.35,2.35,0,0,0,.08-0.57c0-.11-0.08-0.06,0-0.17a1.9,1.9,0,0,0,.31-0.15,3.48,3.48,0,0,1,.5-0.61,3,3,0,0,1,.29-0.23,1.7,1.7,0,0,1,.57-0.32c0.19,0,.4.21,0.36,0.08s-0.15-.12-0.09-0.19a2.82,2.82,0,0,1,.37-0.16c0.16-.09.17-0.15,0.13-0.21s0.11-.07.15-0.13,0,0,0,.05a0.31,0.31,0,0,0,.3,0,1.07,1.07,0,0,0,.38-0.22c0.08,0,0,.05,0,0.1a0.35,0.35,0,0,0,.38,0c0.2-.07.34,0,0.34-0.18a0.92,0.92,0,0,1,.36-0.45,0.53,0.53,0,0,0,.19-0.45,0.84,0.84,0,0,1,.31-0.58,2.36,2.36,0,0,0,.32-0.55,1.71,1.71,0,0,0,.15-0.24,3.56,3.56,0,0,0,0-.7,1,1,0,0,1,.18-0.53,0.31,0.31,0,0,0,.21-0.35,2.84,2.84,0,0,1,.08-1,5.12,5.12,0,0,0,0-1.24,5.75,5.75,0,0,1,0-.9c0.06-.12.17-0.12,0.08-0.23s-0.16-.19-0.09-0.17,0.24,0.23.2,0.13,0-.21,0-0.16a0.2,0.2,0,0,0,.11,0c0.06,0,.09.13,0.21-0.09s0.24-.48.39-0.8a1.38,1.38,0,0,1,.5-0.72,1.19,1.19,0,0,0,.44-0.47,4,4,0,0,0,.63-1.19,2.76,2.76,0,0,0-.12-1.53c-0.24-.56-0.14-0.74-0.51-0.74a1.17,1.17,0,0,1-.93-0.3,3.59,3.59,0,0,0-.7-0.73,3.36,3.36,0,0,0-1.06-.6c-0.28,0-.36.14-0.64,0.12a5.6,5.6,0,0,1-1-.4,0.62,0.62,0,0,0-.44.1,0.88,0.88,0,0,1-.46-0.35,0.81,0.81,0,0,0-.41-0.4c-0.28-.14-1-0.51-1.17-0.56a0.57,0.57,0,0,0-.66.08,1.83,1.83,0,0,1-.45.67,0.81,0.81,0,0,0-.26.38c-0.06.1-.1,0.13-0.13,0a0.3,0.3,0,0,0-.12-0.19,0.66,0.66,0,0,1-.13-0.15c0-.05-0.17-0.14-0.2,0s0,0.3-.08.18a0.76,0.76,0,0,0-.13-0.21,0.74,0.74,0,0,1-.11-0.19,0.66,0.66,0,0,1-.07-0.34c0-.13,0-0.38-0.09-0.23a1.07,1.07,0,0,1-.37.5c-0.14,0-.13,0,0-0.08a0.91,0.91,0,0,0,.3-0.45,0.11,0.11,0,0,0-.19,0,0.92,0.92,0,0,1-.27.47c-0.15.07-.1,0,0-0.13A0.83,0.83,0,0,0,192,201c0-.13.15-0.12,0.21-0.28s0-.18.11-0.21a0.38,0.38,0,0,0,.25-0.19c0-.07.17-0.12,0.2,0s0.11,0,.16-0.07a0.17,0.17,0,0,0,0-.23,1.39,1.39,0,0,1,.11-0.45,0.51,0.51,0,0,0-.38-0.38,1.36,1.36,0,0,1-.26-0.8,1.46,1.46,0,0,0-.15-0.72l-0.14-.11a4.08,4.08,0,0,1-.46-0.34,2.83,2.83,0,0,0-.57-0.56,3.11,3.11,0,0,0-.41-0.16,1.8,1.8,0,0,0-.58-0.15,4,4,0,0,0-.45,0,2,2,0,0,0-.31.16,0.23,0.23,0,0,1-.23-0.17c-0.06-.14-0.1-0.23-0.14-0.14s-0.11.21-.21,0.14l-0.09-.05a0.72,0.72,0,0,1-.28-0.26,1.42,1.42,0,0,0-.43-0.33,1.56,1.56,0,0,1-.2-0.42,2.28,2.28,0,0,0-.78-0.78l-0.1,0a4.3,4.3,0,0,0-.59,0c-0.09,0-.55,0-0.36-0.06s0.27,0,.32-0.25,0.17-.29,0-0.38a1.93,1.93,0,0,0-.36-0.24,0.39,0.39,0,0,0,0,.09,0.31,0.31,0,0,1-.18-0.15c0-.07-0.06,0-0.11.09s0,0,0,0a0.31,0.31,0,0,0-.19-0.26,1.18,1.18,0,0,0-.19.13,0.17,0.17,0,0,1,0-.19c0.05-.1-0.13-0.11,0-0.2a2.28,2.28,0,0,0,.44-0.1,0.33,0.33,0,0,0-.31-0.07,1.23,1.23,0,0,0-.87.12,0.74,0.74,0,0,1-.56.35,1,1,0,0,1-.53-0.16,0.59,0.59,0,0,0-.33-0.27c-0.15,0-.75.11-0.95,0.11s-0.26,0-.29-0.17a0.56,0.56,0,0,0-.33-0.53,2.25,2.25,0,0,0-.73,0c-0.2.07-.49,0.23-0.56,0.26a0.6,0.6,0,0,0-.34.32c0,0.14.33,0.57,0.32,0.69a0.59,0.59,0,0,1-.2.5,0.94,0.94,0,0,1-.5-0.54c0-.11.32-0.51,0.32-0.62s-0.24-.34-0.25-0.44v0a0.45,0.45,0,0,1,.28-0.3c0.14,0,.4-0.28.25-0.41a0.34,0.34,0,0,0-.46,0,1.64,1.64,0,0,1-.25.28l-0.22.16a1.21,1.21,0,0,1-.29.32,0.76,0.76,0,0,0-.55.07c-0.08.16-.14,0.39-0.22,0.31a0.53,0.53,0,0,0-.12-0.21,0.27,0.27,0,0,0-.26.1,1.11,1.11,0,0,0-.29.46,1,1,0,0,1-.1.56,3.38,3.38,0,0,0-.54.65,1.41,1.41,0,0,1-.14.46c-0.05,0-.29-0.5-0.43-0.66s-0.32-.3-0.32-0.23-0.17,0-.27-0.07a1.76,1.76,0,0,0-.57-0.22,0.32,0.32,0,0,0-.28.13,1.65,1.65,0,0,1-.4.24,0.48,0.48,0,0,1-.19.13,0.7,0.7,0,0,1-.53-0.1,0.75,0.75,0,0,0-.36-0.17,0.52,0.52,0,0,1-.21-0.21,1.87,1.87,0,0,1-.15-0.25c-0.08-.13-0.33-0.4-0.49-0.64a0.81,0.81,0,0,1-.14-0.22,3.18,3.18,0,0,1,.17-0.68,9.68,9.68,0,0,0,.12-1c0-.27.2-0.47,0.18-0.69s0-.27,0-0.35,0-.07,0-0.1l-0.1,0a3.9,3.9,0,0,1-.54-0.48,1.24,1.24,0,0,0-.79-0.08,2.13,2.13,0,0,1-.68.17,1.08,1.08,0,0,0-.49-0.15,1.79,1.79,0,0,1-.51.12l-0.09,0-0.2-.13c-0.06-.06-0.06-0.11.05-0.19a1.13,1.13,0,0,0,.34-0.88,1,1,0,0,1,.18-0.64l0,0a1.87,1.87,0,0,0,.23-0.62,1.72,1.72,0,0,1,.08-1,1.24,1.24,0,0,0,.37-0.59c0-.17,0-0.32-0.35-0.3a3.66,3.66,0,0,0-1.71.4,3.4,3.4,0,0,0-.19,1,7.86,7.86,0,0,1-.49.62,0.4,0.4,0,0,1-.06.25,0.85,0.85,0,0,1-.33-0.12,2.82,2.82,0,0,0-.93.19c-0.26.11-.43,0.24-0.57,0.11a0.91,0.91,0,0,0-.43-0.35,0.69,0.69,0,0,1-.68-0.45,3.06,3.06,0,0,0-.39-0.87,3.63,3.63,0,0,1-.41-1.16,3.16,3.16,0,0,1,0-1.16,8.65,8.65,0,0,1,0-.88,7.9,7.9,0,0,0,.36-0.75,0.74,0.74,0,0,0,0-.19c0-.33-0.22-0.8-0.25-1s0,0,.12-0.16a1.71,1.71,0,0,0,0-.3,2.28,2.28,0,0,1,.2-0.14,0.93,0.93,0,0,0,.39-0.39c0-.18.06-0.13,0.12-0.07a1.2,1.2,0,0,0,.63-0.3c0.19-.14.35-0.3,0.24-0.35s-0.29-.2-0.11-0.15,0.19,0.17.35,0.07a0.63,0.63,0,0,1,.42-0.22,0.76,0.76,0,0,1,.57.15c0.13,0.15.21,0.14,0.3,0.07a0.32,0.32,0,0,1,.37-0.07,1.26,1.26,0,0,0,.47.35c0.16,0,.38-0.35.48-0.3a1,1,0,0,1,.4.42c0,0.07.13-.05,0.16-0.1s0,0-.08-0.11-0.29-.24-0.21-0.3,0.11,0,0-.08a0.37,0.37,0,0,1-.08-0.21c0-.08-0.05-0.09-0.12,0s-0.41.06-.37-0.06a0.19,0.19,0,0,1,.25-0.12,0.23,0.23,0,0,0,.31.08,2.35,2.35,0,0,1,.62-0.09,1,1,0,0,1,.36-0.06c0.06,0,0,.13.1,0.13s0.25-.06.45-0.06a1.32,1.32,0,0,1,.71,0c0.15,0.13.2,0.33,0.31,0.41a0.25,0.25,0,0,0,.29.05,2.71,2.71,0,0,1,.46-0.26c0.07,0,.29.39,0.45,0.52a1.08,1.08,0,0,1,.43.51c0,0.16-.07.38-0.07,0.5a0.52,0.52,0,0,0,.15.24c0,0.06-.07,0-0.06.14a0.6,0.6,0,0,0,.12.47c0.13,0.11.22,0.07,0.22,0.17s0.08,0,.11.07a1.24,1.24,0,0,0,0,.41,1.05,1.05,0,0,0,.3.28,4.42,4.42,0,0,0,.27.53,1.38,1.38,0,0,0,.21-0.13,0.21,0.21,0,0,1,0,.22s0.11,0,.11-0.07a1.59,1.59,0,0,1,.1-0.61,1.79,1.79,0,0,0,0-1.21,2.56,2.56,0,0,1-.29-0.79,6.42,6.42,0,0,0-.27-0.91,3.08,3.08,0,0,1-.24-1.15,2.34,2.34,0,0,1,.4-0.82,2.51,2.51,0,0,1,.54-0.48,3.39,3.39,0,0,0,.39-0.41,0.52,0.52,0,0,1,.13-0.23,2,2,0,0,1,.4-0.28,1.4,1.4,0,0,0,.34-0.15,3.91,3.91,0,0,1,.48-0.49,2.1,2.1,0,0,0,.47-0.11c0.09-.1.14-0.21,0-0.17a0.72,0.72,0,0,1-.37.07c0-.07.14,0,0.18-0.11a0.29,0.29,0,0,0-.06-0.24c0-.07,0-0.15,0-0.12s0.07,0.06.08,0,0.05-.12.05,0a0.14,0.14,0,0,0,.1.17,0.45,0.45,0,0,0,.27-0.2,0.63,0.63,0,0,0,.16-0.31s-0.12,0-.16.06a0.09,0.09,0,0,1-.15,0c0-.06,0-0.06-0.1-0.07a0.44,0.44,0,0,1-.26,0c0-.06-0.06-0.17,0-0.12s0.19,0.14.26,0a0.15,0.15,0,0,1,.18-0.1c0.1,0,.11,0,0-0.06a0.23,0.23,0,0,1-.07-0.23,0.26,0.26,0,0,0,0-.28,0.91,0.91,0,0,1-.38-0.12,1.16,1.16,0,0,0-.25-0.21c-0.07,0,0-.06.11-0.06a0.52,0.52,0,0,0,.31,0c0.07-.07,0-0.13-0.06-0.2a2.72,2.72,0,0,1-.49-0.51,0.31,0.31,0,0,1,0-.34,0.59,0.59,0,0,0,.12-0.29c0-.08.07,0.07,0.05,0.15a0.22,0.22,0,0,0-.06.19,0.46,0.46,0,0,0,.29.26,1,1,0,0,0,0-.36,1.1,1.1,0,0,1,.06-0.46,0.54,0.54,0,0,1,.26-0.25,0.42,0.42,0,0,0-.13.4,1,1,0,0,0,.1.58,0.82,0.82,0,0,1,.27.47,3.11,3.11,0,0,0-.21.44c0,0.16,0,.23,0,0.16a4.8,4.8,0,0,1,.27-0.45,1.57,1.57,0,0,0,.31-0.74c0-.19-0.31-0.6-0.33-0.75a0.27,0.27,0,0,1,.07-0.31c0.11-.08.32-0.12,0.21,0s-0.2,0-.19.2a0.51,0.51,0,0,0,.19.33c0.11,0.1.12,0.26,0.2,0.12s0.21-.29.33-0.5a0.76,0.76,0,0,0,.14-0.57,0.4,0.4,0,0,1-.07-0.32,0.68,0.68,0,0,0,.1-0.26c0-.08.05,0,0.05,0s-0.11.24,0,.15a3.74,3.74,0,0,1,.37-0.29,0.92,0.92,0,0,1,.56-0.2,0.71,0.71,0,0,0,.57-0.07c0-.14,0-0.36.07-0.27s0,0.22.1,0.22a0.41,0.41,0,0,0,.28-0.13c0.07-.06.06,0,0.07,0.06s0.07,0,.17,0a1.21,1.21,0,0,0,.29-0.19,0.14,0.14,0,0,0-.07-0.19c-0.11,0-.15,0-0.11,0a0.12,0.12,0,0,1,0,.19c-0.08,0-.15,0-0.17-0.06a0.82,0.82,0,0,0-.19-0.35c-0.07-.07-0.07-0.09,0-0.16a0.19,0.19,0,0,0,0-.21c0-.1-0.08-0.08,0-0.22a2.61,2.61,0,0,0,.15-0.31c0.07-.12.12-0.16,0.17-0.27a0.19,0.19,0,0,1,.16-0.15,0.23,0.23,0,0,0,.16-0.13s0,0,0,0a0.26,0.26,0,0,0,.33-0.16c0.09-.19.08-0.37,0.15-0.31a0.37,0.37,0,0,0,.18.22,0.54,0.54,0,0,0,.27-0.17,1.17,1.17,0,0,0,.37-0.15,2,2,0,0,0,.35-0.25l0,0a0.17,0.17,0,0,1,.13-0.14,1.71,1.71,0,0,0,.37-0.19c0.09-.08,0-0.05.12,0a1.1,1.1,0,0,0,.44-0.23c0.16-.08.23,0,0.33-0.08s0.14,0,.06-0.12-0.16-.28-0.1-0.22a0.46,0.46,0,0,0,.19.21c0.09,0,.13,0,0,0.11s-0.34.17-.25,0.21a0.38,0.38,0,0,0,.22,0c0.14,0,.45,0,0.53,0s0.07,0.07,0,.08-0.05.05,0,.06-0.1,0-.17,0a0.15,0.15,0,0,0-.16.07c0,0.06,0,.18-0.08.1a1.49,1.49,0,0,0-.13-0.18s0-.14-0.06-0.06,0,0.11-.08,0,0-.1-0.13,0a0.69,0.69,0,0,1-.19.19,3.29,3.29,0,0,0-.39.25,0.88,0.88,0,0,0-.21.39,0.57,0.57,0,0,0,0,.44,0.69,0.69,0,0,0,.33.17,0.58,0.58,0,0,0,.18-0.12,6.08,6.08,0,0,0,.44-0.47,1.65,1.65,0,0,1,.37-0.39c0,0.09-.06.15,0,0.16a0.34,0.34,0,0,0,.31-0.05c0-.09,0-0.06.18-0.12a5.75,5.75,0,0,0,.72-0.32c0.2-.11.41-0.11,0.46-0.16s0-.08,0-0.13-0.08,0,0-.1,0.1-.11,0-0.11-0.31.06-.34-0.08-0.14-.1-0.21,0a0.38,0.38,0,0,1-.28.09c-0.1,0-.11-0.06-0.28-0.1a1,1,0,0,1-.49-0.11,0.14,0.14,0,0,1,0-.17s0-.07-0.11-0.09a0.41,0.41,0,0,1-.33-0.17,2.08,2.08,0,0,1-.11-0.48,0.19,0.19,0,0,0-.22-0.14c-0.06,0-.18,0-0.08-0.07a0.57,0.57,0,0,0,.25-0.32,0.19,0.19,0,0,0,0-.23,0.8,0.8,0,0,0-.09-0.22,0.11,0.11,0,0,0-.15.06,0.32,0.32,0,0,1-.1.2,0.15,0.15,0,0,1-.19-0.08c0-.09.09-0.09-0.06-0.15s-0.24-.15-0.16-0.15a0.43,0.43,0,0,1,.23,0,0.25,0.25,0,0,0,.26.05L184,163a0.4,0.4,0,0,0,.26-0.15,0.25,0.25,0,0,0-.07-0.2c-0.06-.07-0.12-0.1-0.06-0.12s0.18,0,.11,0a1.86,1.86,0,0,0-.92-0.33,4,4,0,0,0-1.38.51l-0.73.49a6.85,6.85,0,0,0-.73.91,0.57,0.57,0,0,1-.39.24c-0.19.09-.16,0-0.06-0.06a4.22,4.22,0,0,0,.71-0.83c0-.14.17-0.17,0-0.26a3.89,3.89,0,0,1-.52-0.21c-0.07-.08.47,0.18,0.62,0.18a1.2,1.2,0,0,0,.45-0.48,1.81,1.81,0,0,1,.49-0.49,0.81,0.81,0,0,0,.58-0.17,1.82,1.82,0,0,1,.32-0.63,1,1,0,0,1,.38-0.15c0.11,0,2.19,0,2.43,0a1.79,1.79,0,0,0,.47.1l0.71-.15a1.17,1.17,0,0,0,.6-0.29c0.21-.21.33-0.49,0.51-0.64a7.35,7.35,0,0,1,.89-0.11,2.26,2.26,0,0,0,.77-0.66c0.06-.14.07-0.22-0.1-0.28s-0.42-.13-0.29-0.18,0.28,0,.27-0.16,0-.26-0.06-0.28,0,0,.06-0.08,0.16-.12,0-0.28-0.23-.17-0.31-0.24-0.1-.14-0.19-0.07a0.36,0.36,0,0,1-.29.13c-0.13,0,0-.08,0-0.18s0-.15-0.08-0.23a0.34,0.34,0,0,0-.3-0.19,0.69,0.69,0,0,0-.38.14,0.47,0.47,0,0,0-.22.13,0.67,0.67,0,0,1-.39.33,2.55,2.55,0,0,1-.42.15c-0.09,0-.31-0.27-0.42-0.33s0-.12.12,0,0.25,0.26.35,0.14a1.33,1.33,0,0,1,.44-0.35c0.14-.09-0.07,0-0.13-0.08s0.07,0,.25-0.05a3,3,0,0,0,.48-0.17,1.65,1.65,0,0,0,.5-0.25,0.4,0.4,0,0,0-.17-0.18,0.51,0.51,0,0,1-.09-0.19s-0.06,0-.15.05a0.62,0.62,0,0,1-.51-0.18c-0.11-.14-0.07-0.14-0.28.08s-0.4.24-.29,0.11,0.22-.21.15-0.3a0.84,0.84,0,0,0-.52.13c-0.09,0-.14,0,0-0.11s0.14-.16.18-0.23a0.36,0.36,0,0,0-.1-0.34,0.48,0.48,0,0,1-.33-0.2c0-.15-0.14-0.09-0.23-0.11a0.46,0.46,0,0,1-.22-0.26c0-.07,0,0-0.11,0s-0.07,0-.06-0.12a0.28,0.28,0,0,0-.15-0.23c-0.07-.07-0.18-0.29-0.09-0.19s0.19,0.26.3,0.19,0-.14.16-0.18,0.25-.13.16-0.27a0.91,0.91,0,0,0-.37-0.32c-0.13-.06-0.29-0.07-0.2-0.1a0.34,0.34,0,0,0,.25-0.22c0-.09-0.14,0-0.23,0a42.53,42.53,0,0,0-17.55,9.42A45.24,45.24,0,0,0,156.46,179.6Z" transform="translate(-1.11 0.57)"/><path class="cls-7" d="M190.74,153.45S122.1,191,183.57,245.52" transform="translate(-1.11 0.57)"/><path class="cls-7" d="M192.32,154.09s-57.12,43.49-2.92,93" transform="translate(-1.11 0.57)"/><path class="cls-7" d="M198.25,157.3" transform="translate(-1.11 0.57)"/><path class="cls-7" d="M192.32,245.64s-38.15-42.82,2.18-91" transform="translate(-1.11 0.57)"/><path class="cls-7" d="M197.32,155.11s-24,38.46-2.47,89.5" transform="translate(-1.11 0.57)"/><path class="cls-7" d="M199.67,155.32s-12.41,44-.54,88.12" transform="translate(-1.11 0.57)"/><path class="cls-7" d="M202.37,155.4s1.16,41.86.26,90.7" transform="translate(-1.11 0.57)"/><path class="cls-7" d="M205.16,155.18s13.34,41.14,0,95.5" transform="translate(-1.11 0.57)"/><path class="cls-7" d="M207.72,155c5.16,19.45,24.72,41.71-.38,95.6" transform="translate(-1.11 0.57)"/><path class="cls-7" d="M167.66,163.56s31.27,15.71,68.22.73" transform="translate(-1.11 0.57)"/><path class="cls-7" d="M180.21,155.65s9.5,7.6,44.81,1.26" transform="translate(-1.11 0.57)"/><path class="cls-7" d="M157.86,176.5s43.2,17.05,87.18-.59" transform="translate(-1.11 0.57)"/><path class="cls-7" d="M153.53,189s46.68,18,96.79.25" transform="translate(-1.11 0.57)"/><path class="cls-7" d="M158.81,227s28.52,10.36,59.68,6.05" transform="translate(-1.11 0.57)"/><path class="cls-7" d="M203.06,248.94s10.25-.75,15.75-1.9" transform="translate(-1.11 0.57)"/><path class="cls-7" d="M213.37,152.86a58.91,58.91,0,0,1,32.72,48.63" transform="translate(-1.11 0.57)"/><path class="cls-7" d="M189.89,152.46" transform="translate(-1.11 0.57)"/><path class="cls-13" d="M148.9,243.1a6.31,6.31,0,0,1,1.66-.94S155,229.4,157,230.56c0,0,.25-1.21.69-1.19,0,0,.44-0.11-0.58-2,0,0,9.64-19.83,20.45-24.16C177.57,203.23,165.5,202.51,148.9,243.1Z" transform="translate(-1.11 0.57)"/><path class="cls-27" d="M188.53,203.77c0.33,0.2-11.64-2.82-20.11,14.26,0,0-4.33,10.33-7.81,12.8,0,0-2,2.41-3.6-.28a1.35,1.35,0,0,1,.69-1.19,4.91,4.91,0,0,0-.58-2s13.17-25.71,20.45-24.16C177.57,203.23,182.43,200.19,188.53,203.77Z" transform="translate(-1.11 0.57)"/><path class="cls-7" d="M213,153.8c0.71,0.77,38.08,28.18,23.51,62.28-0.39.92-1.15,2.36-1.6,3.35" transform="translate(-1.11 0.57)"/><path class="cls-26" d="M236.19,164.51" transform="translate(-1.11 0.57)"/><path class="cls-28" d="M213.8,153.24c0,0.74-5.25,2.08-11.72,2.08s-11.72-1.57-11.72-2.31,5.25-1.35,11.72-1.35S213.8,152.5,213.8,153.24Z" transform="translate(-1.11 0.57)"/><polygon class="cls-18" points="228.32 219.89 239.08 220 253.11 224.57 239.34 224.5 228.32 219.89"/><polygon class="cls-23" points="262.99 223 259.45 223 255.91 223 255.91 216.01 259.62 216.01 262.99 216.01 262.99 223"/><line class="cls-24" x1="259.45" y1="216.2" x2="259.45" y2="222.74"/><line class="cls-24" x1="256.07" y1="219.31" x2="262.99" y2="219.31"/><line class="cls-7" x1="256.41" y1="230.21" x2="262.35" y2="230.21"/><line class="cls-7" x1="244.2" y1="230.27" x2="250.43" y2="230.27"/><path class="cls-13" d="M117.6,243.47c-3.24,1.32-5.73.61-7.41-4.22-2-5.76,3.37-7.16,4.34-7.26,2.44-.23,5.5,2.11,5.5,2.11l-5.5,1.56a5.82,5.82,0,0,1,3.83,2.62C119.14,239.62,118.36,243.16,117.6,243.47Z" transform="translate(-1.11 0.57)"/><path class="cls-8" d="M116.09,240.92" transform="translate(-1.11 0.57)"/><path class="cls-13" d="M116.77,239.41l-1.39.41a1.06,1.06,0,0,1-1.27-1c-0.07-.33.09-0.87,1.1-1.09" transform="translate(-1.11 0.57)"/><path class="cls-13" d="M116.26,238.43l-1,.32a0.79,0.79,0,0,1,.49.93" transform="translate(-1.11 0.57)"/><path class="cls-13" d="M117.4,237s-2.44.75-2.44,0.75c3.31,1.52,1,3.38,1,3.38l2.77-.86a4.68,4.68,0,0,0-.22-1.76A4.49,4.49,0,0,0,117.4,237Z" transform="translate(-1.11 0.57)"/><path class="cls-13" d="M128.53,240.05l-10.81,3.36s3.67-6.12-3.19-7.76l5.5-1.56Z" transform="translate(-1.11 0.57)"/></svg>